# SSTK version 0.8.0
# 55
mtllib original-55.mtl
o _3035_C2/_3035_C/mesh24/mesh24-geometry#mesh24-geometry
v 0.332203 -0.410301 0.399809
v 0.332203 -0.407155 0.448526
v 0.332203 -0.410301 0.451672
v 0.332203 -0.391555 0.399809
v 0.291761 -0.410301 0.399809
v 0.332203 -0.400928 0.446858
v 0.291761 -0.410301 0.451672
v 0.291761 -0.391555 0.399809
v 0.332203 -0.394701 0.448526
v 0.291761 -0.407155 0.448526
v 0.291761 -0.391555 0.451672
v 0.332203 -0.391555 0.451672
v 0.291761 -0.400928 0.446858
v 0.291761 -0.394701 0.448526
vn 1 0 0
vn 0 -1 0
vn 0 0 -1
vn -1 0 0
vn 0 1 0
vn 0 0 1
usemtl material_0_0
f 1//1 2//1 3//1
f 2//1 1//1 4//1
f 3//2 5//2 1//2
f 5//3 4//3 1//3
f 2//1 4//1 6//1
f 5//2 3//2 7//2
f 4//3 5//3 8//3
f 6//1 4//1 9//1
f 10//4 5//4 7//4
f 5//4 10//4 8//4
f 11//5 4//5 8//5
f 9//1 4//1 12//1
f 8//4 10//4 13//4
f 4//5 11//5 12//5
f 8//4 14//4 11//4
f 8//4 13//4 14//4
usemtl material_1_0
f 3//4 2//4 1//4
f 4//4 1//4 2//4
f 1//5 5//5 3//5
f 1//6 4//6 5//6
f 6//4 4//4 2//4
f 7//5 3//5 5//5
f 8//6 5//6 4//6
f 9//4 4//4 6//4
f 7//1 5//1 10//1
f 8//1 10//1 5//1
f 8//2 4//2 11//2
f 12//4 4//4 9//4
f 13//1 10//1 8//1
f 12//2 11//2 4//2
f 11//1 14//1 8//1
f 14//1 13//1 8//1
