# SSTK version 0.8.0
# 34
mtllib original-34.mtl
o mesh180/mesh180-geometry#mesh180-geometry
v 0.019696 0.104662 -0.179787
v 0.023605 0.104662 -0.180482
v 0.026224 0.104662 -0.179873
v 0.017814 0.104662 -0.183527
v 0.032881 0.104662 -0.179310
v 0.021605 0.104662 -0.182308
v 0.022655 0.104662 -0.177316
v 0.028517 0.104662 -0.180422
v 0.020337 0.104662 -0.185060
v 0.030135 0.104662 -0.177197
v 0.034895 0.104662 -0.183050
v 0.017186 0.104662 -0.188160
v 0.026516 0.104662 -0.176493
v 0.030394 0.104662 -0.182069
v 0.019914 0.104662 -0.188447
v 0.031854 0.104662 -0.184814
v 0.017793 0.104662 -0.193219
v 0.036318 0.104662 -0.188638
v 0.020366 0.104662 -0.191994
v 0.032899 0.104662 -0.188657
v 0.021724 0.104662 -0.194614
v 0.037379 0.104662 -0.192840
v 0.019614 0.104662 -0.197011
v 0.034408 0.104662 -0.194328
v 0.023985 0.104662 -0.196309
v 0.038891 0.104662 -0.195842
v 0.027152 0.104662 -0.197078
v 0.036427 0.104662 -0.198357
v 0.022676 0.104662 -0.199458
v 0.040853 0.104662 -0.197643
v 0.027007 0.104662 -0.200477
v 0.043265 0.104662 -0.198243
v 0.047202 0.104662 -0.200706
v 0.050449 0.104662 -0.198081
v 0.039219 0.104662 -0.200764
v 0.045195 0.104662 -0.197947
v 0.043047 0.104662 -0.201565
v 0.047021 0.104662 -0.197059
v 0.048575 0.104662 -0.195626
v 0.052585 0.104662 -0.193927
v 0.049694 0.104662 -0.193698
v 0.050369 0.104662 -0.191278
v 0.053322 0.104662 -0.188618
v 0.050594 0.104662 -0.188370
v 0.050046 0.104662 -0.184523
v 0.052628 0.104662 -0.183077
v 0.048403 0.104662 -0.181496
v 0.045686 0.104662 -0.179429
v 0.050544 0.104662 -0.178961
v 0.041919 0.104662 -0.178460
v 0.047072 0.104662 -0.176270
v 0.042210 0.104662 -0.175003
vt -0.214722 0.015796
vt -0.215033 0.013959
vt -0.21476 0.012729
vt -0.216395 0.01668
vt -0.214508 0.009602
vt -0.21585 0.014899
vt -0.213617 0.014405
vt -0.215006 0.011652
vt -0.217081 0.015495
vt -0.213563 0.010892
vt -0.216182 0.008656
vt -0.218468 0.016975
vt -0.213248 0.012592
vt -0.215743 0.01077
vt -0.218596 0.015693
vt -0.216971 0.010084
vt -0.220731 0.01669
vt -0.218682 0.007988
vt -0.220183 0.015481
vt -0.21869 0.009594
vt -0.221356 0.014843
vt -0.220562 0.007489
vt -0.222428 0.015834
vt -0.221227 0.008885
vt -0.222114 0.013781
vt -0.221904 0.006779
vt -0.222458 0.012293
vt -0.22303 0.007936
vt -0.223522 0.014396
vt -0.22271 0.005857
vt -0.223978 0.012362
vt -0.222979 0.004724
vt -0.224081 0.002875
vt -0.222906 0.00135
vt -0.224106 0.006625
vt -0.222846 0.003818
vt -0.224465 0.004827
vt -0.222449 0.00296
vt -0.221808 0.00223
vt -0.221048 0.000346
vt -0.220946 0.001704
vt -0.219863 0.001387
vt -0.218673 0
vt -0.218562 0.001281
vt -0.216841 0.001539
vt -0.216194 0.000326
vt -0.215487 0.002311
vt -0.214562 0.003587
vt -0.214353 0.001305
vt -0.214128 0.005356
vt -0.213149 0.002936
vt -0.212582 0.00522
vn 0 -1 0
vn 0 1 0
usemtl material_0_0
f 1/1/1 2/2/1 3/3/1
f 2/2/1 1/1/1 4/4/1
f 3/3/2 2/2/2 1/1/2
f 4/4/2 1/1/2 2/2/2
f 5/5/1 1/1/1 3/3/1
f 3/3/2 1/1/2 5/5/2
f 2/2/1 4/4/1 6/6/1
f 6/6/2 4/4/2 2/2/2
f 5/5/1 7/7/1 1/1/1
f 1/1/2 7/7/2 5/5/2
f 5/5/1 3/3/1 8/8/1
f 8/8/2 3/3/2 5/5/2
f 6/6/1 4/4/1 9/9/1
f 9/9/2 4/4/2 6/6/2
f 10/10/1 7/7/1 5/5/1
f 5/5/2 7/7/2 10/10/2
f 5/5/1 8/8/1 11/11/1
f 11/11/2 8/8/2 5/5/2
f 9/9/1 4/4/1 12/12/1
f 12/12/2 4/4/2 9/9/2
f 7/7/1 10/10/1 13/13/1
f 13/13/2 10/10/2 7/7/2
f 11/11/1 8/8/1 14/14/1
f 14/14/2 8/8/2 11/11/2
f 9/9/1 12/12/1 15/15/1
f 15/15/2 12/12/2 9/9/2
f 11/11/1 14/14/1 16/16/1
f 16/16/2 14/14/2 11/11/2
f 15/15/1 12/12/1 17/17/1
f 17/17/2 12/12/2 15/15/2
f 11/11/1 16/16/1 18/18/1
f 18/18/2 16/16/2 11/11/2
f 15/15/1 17/17/1 19/19/1
f 19/19/2 17/17/2 15/15/2
f 18/18/1 16/16/1 20/20/1
f 20/20/2 16/16/2 18/18/2
f 19/19/1 17/17/1 21/21/1
f 21/21/2 17/17/2 19/19/2
f 18/18/1 20/20/1 22/22/1
f 22/22/2 20/20/2 18/18/2
f 21/21/1 17/17/1 23/23/1
f 23/23/2 17/17/2 21/21/2
f 22/22/1 20/20/1 24/24/1
f 24/24/2 20/20/2 22/22/2
f 21/21/1 23/23/1 25/25/1
f 25/25/2 23/23/2 21/21/2
f 22/22/1 24/24/1 26/26/1
f 26/26/2 24/24/2 22/22/2
f 25/25/1 23/23/1 27/27/1
f 27/27/2 23/23/2 25/25/2
f 26/26/1 24/24/1 28/28/1
f 28/28/2 24/24/2 26/26/2
f 27/27/1 23/23/1 29/29/1
f 29/29/2 23/23/2 27/27/2
f 26/26/1 28/28/1 30/30/1
f 30/30/2 28/28/2 26/26/2
f 27/27/1 29/29/1 31/31/1
f 31/31/2 29/29/2 27/27/2
f 30/30/1 28/28/1 32/32/1
f 32/32/2 28/28/2 30/30/2
f 33/33/1 32/32/1 28/28/1
f 28/28/2 32/32/2 33/33/2
f 34/34/1 32/32/1 33/33/1
f 33/33/2 32/32/2 34/34/2
f 33/33/1 28/28/1 35/35/1
f 35/35/2 28/28/2 33/33/2
f 34/34/1 36/36/1 32/32/1
f 32/32/2 36/36/2 34/34/2
f 33/33/1 35/35/1 37/37/1
f 37/37/2 35/35/2 33/33/2
f 34/34/1 38/38/1 36/36/1
f 36/36/2 38/38/2 34/34/2
f 34/34/1 39/39/1 38/38/1
f 38/38/2 39/39/2 34/34/2
f 40/40/1 39/39/1 34/34/1
f 34/34/2 39/39/2 40/40/2
f 40/40/1 41/41/1 39/39/1
f 39/39/2 41/41/2 40/40/2
f 40/40/1 42/42/1 41/41/1
f 41/41/2 42/42/2 40/40/2
f 43/43/1 42/42/1 40/40/1
f 40/40/2 42/42/2 43/43/2
f 43/43/1 44/44/1 42/42/1
f 42/42/2 44/44/2 43/43/2
f 43/43/1 45/45/1 44/44/1
f 44/44/2 45/45/2 43/43/2
f 46/46/1 45/45/1 43/43/1
f 43/43/2 45/45/2 46/46/2
f 46/46/1 47/47/1 45/45/1
f 45/45/2 47/47/2 46/46/2
f 46/46/1 48/48/1 47/47/1
f 47/47/2 48/48/2 46/46/2
f 49/49/1 48/48/1 46/46/1
f 46/46/2 48/48/2 49/49/2
f 49/49/1 50/50/1 48/48/1
f 48/48/2 50/50/2 49/49/2
f 51/51/1 50/50/1 49/49/1
f 49/49/2 50/50/2 51/51/2
f 50/50/1 51/51/1 52/52/1
f 52/52/2 51/51/2 50/50/2
