# SSTK version 0.8.0
# 31
mtllib original-31.mtl
o mesh177/mesh177-geometry#mesh177-geometry
v 0.017786 0.104662 -0.086133
v 0.020805 0.104662 -0.089627
v 0.052722 0.104662 -0.086133
v 0.017786 0.104662 -0.098870
v 0.052722 0.104662 -0.089627
v 0.020805 0.104662 -0.097896
v 0.035063 0.104662 -0.089627
v 0.021248 0.104662 -0.101906
v 0.037955 0.104662 -0.089627
v 0.018438 0.104662 -0.103844
v 0.035063 0.104662 -0.097896
v 0.022578 0.104662 -0.104770
v 0.037955 0.104662 -0.098870
v 0.020396 0.104662 -0.107577
v 0.034615 0.104662 -0.101906
v 0.024794 0.104662 -0.106489
v 0.037218 0.104662 -0.103949
v 0.027898 0.104662 -0.107061
v 0.033272 0.104662 -0.104770
v 0.035072 0.104662 -0.107692
v 0.036313 0.104662 -0.106040
v 0.031032 0.104662 -0.106489
v 0.023549 0.104662 -0.109911
v 0.031790 0.104662 -0.109907
v 0.027789 0.104662 -0.110690
vt -0.172823 0.016693
vt -0.174387 0.015275
vt -0.172823 0.000282
vt -0.178521 0.016693
vt -0.174387 0.000282
vt -0.178086 0.015275
vt -0.174387 0.008577
vt -0.17988 0.015067
vt -0.174387 0.007219
vt -0.180747 0.016386
vt -0.178086 0.008577
vt -0.181161 0.014442
vt -0.178521 0.007219
vt -0.182417 0.015467
vt -0.17988 0.008787
vt -0.18193 0.013401
vt -0.180794 0.007565
vt -0.182186 0.011943
vt -0.181161 0.009419
vt -0.182468 0.008573
vt -0.181729 0.00799
vt -0.18193 0.01047
vt -0.183461 0.013986
vt -0.183459 0.010115
vt -0.183809 0.011994
vn 0 -1 0
vn 0 1 0
usemtl material_0_0
f 1/1/1 2/2/1 3/3/1
f 2/2/1 1/1/1 4/4/1
f 3/3/2 2/2/2 1/1/2
f 4/4/2 1/1/2 2/2/2
f 2/2/1 5/5/1 3/3/1
f 3/3/2 5/5/2 2/2/2
f 2/2/1 4/4/1 6/6/1
f 6/6/2 4/4/2 2/2/2
f 5/5/1 2/2/1 7/7/1
f 7/7/2 2/2/2 5/5/2
f 6/6/1 4/4/1 8/8/1
f 8/8/2 4/4/2 6/6/2
f 5/5/1 7/7/1 9/9/1
f 9/9/2 7/7/2 5/5/2
f 8/8/1 4/4/1 10/10/1
f 10/10/2 4/4/2 8/8/2
f 11/11/1 9/9/1 7/7/1
f 7/7/2 9/9/2 11/11/2
f 8/8/1 10/10/1 12/12/1
f 12/12/2 10/10/2 8/8/2
f 9/9/1 11/11/1 13/13/1
f 13/13/2 11/11/2 9/9/2
f 12/12/1 10/10/1 14/14/1
f 14/14/2 10/10/2 12/12/2
f 13/13/1 11/11/1 15/15/1
f 15/15/2 11/11/2 13/13/2
f 12/12/1 14/14/1 16/16/1
f 16/16/2 14/14/2 12/12/2
f 13/13/1 15/15/1 17/17/1
f 17/17/2 15/15/2 13/13/2
f 16/16/1 14/14/1 18/18/1
f 18/18/2 14/14/2 16/16/2
f 17/17/1 15/15/1 19/19/1
f 19/19/2 15/15/2 17/17/2
f 20/20/1 18/18/1 14/14/1
f 14/14/2 18/18/2 20/20/2
f 17/17/1 19/19/1 21/21/1
f 21/21/2 19/19/2 17/17/2
f 20/20/1 22/22/1 18/18/1
f 18/18/2 22/22/2 20/20/2
f 20/20/1 14/14/1 23/23/1
f 23/23/2 14/14/2 20/20/2
f 21/21/1 19/19/1 22/22/1
f 22/22/2 19/19/2 21/21/2
f 21/21/1 22/22/1 20/20/1
f 20/20/2 22/22/2 21/21/2
f 20/20/1 23/23/1 24/24/1
f 24/24/2 23/23/2 20/20/2
f 24/24/1 23/23/1 25/25/1
f 25/25/2 23/23/2 24/24/2
