# SSTK version 0.8.0
# 36
mtllib original-36.mtl
o Group11/mesh187/mesh187-geometry#mesh187-geometry
v 0.200149 0.056188 -0.621691
v -0.179394 0.056969 -0.627622
v 0.200149 0.056969 -0.627622
v -0.179394 0.056188 -0.621691
v -0.179394 0.059258 -0.633148
v 0.200149 0.056969 -0.615761
v -0.108230 0.056188 -0.621691
v -0.179394 0.056969 -0.615761
v 0.200149 0.059258 -0.633148
v -0.179394 0.059258 -0.610235
v -0.179394 0.062899 -0.637893
v -0.179394 0.062899 -0.605489
v 0.200149 0.059258 -0.610235
v 0.200149 0.062899 -0.637893
v 0.200149 0.062899 -0.605489
v 0.200149 0.067645 -0.641535
v -0.179394 0.067645 -0.641535
v -0.179394 0.067645 -0.601848
v 0.200149 0.067645 -0.601848
v 0.200149 0.073171 -0.643824
v -0.179394 0.073171 -0.599559
v 0.200149 0.073171 -0.599559
v -0.179394 0.073171 -0.643824
v 0.200149 0.079101 -0.644604
v -0.179394 0.079101 -0.598778
v -0.179394 0.079101 -0.644604
v 0.200149 0.079101 -0.598778
v 0.200149 0.085032 -0.643824
v 0.200149 0.085032 -0.599559
v -0.179394 0.085032 -0.599559
v -0.179394 0.085032 -0.643824
v 0.200149 0.090558 -0.641535
v -0.179394 0.090558 -0.601848
v -0.179394 0.090558 -0.641535
v 0.200149 0.090558 -0.601848
v 0.200149 0.095303 -0.637893
v -0.179394 0.095303 -0.605489
v -0.179394 0.095303 -0.637893
v 0.200149 0.095303 -0.605489
v 0.200149 0.098945 -0.633148
v -0.179394 0.098945 -0.610235
v -0.179394 0.098945 -0.633148
v 0.200149 0.098945 -0.610235
v 0.200149 0.101234 -0.627622
v -0.179394 0.101234 -0.615761
v -0.179394 0.101234 -0.627622
v 0.200149 0.101234 -0.615761
v 0.200149 0.102014 -0.621691
v -0.108230 0.102014 -0.621691
v -0.179394 0.102014 -0.621691
vn 0 -1 0
vn 0 -0.9659258492011171 -0.2588189595935757
vn 0 0.9659258492011171 0.2588189595935757
vn 0 1 0
vn 0 -0.8660253028382761 -0.500000174843842
vn 0 0.8660253028382761 0.500000174843842
vn 1 0 0
vn -1 0 0
vn 0 -0.9659258492011171 0.2588189595935752
vn 0 0.9659258492011171 -0.2588189595935752
vn 0 -0.7071067811865476 -0.7071067811865478
vn 0 0.7071067811865476 0.7071067811865478
vn 0 -0.8660253028382763 0.5000001748438415
vn 0 0.8660253028382763 -0.5000001748438415
vn 0 -0.7071067811865478 0.7071067811865476
vn 0 0.7071067811865478 -0.7071067811865476
vn 0 -0.5000001748438415 -0.8660253028382763
vn 0 0.5000001748438415 0.8660253028382763
vn 0 -0.500000174843842 0.8660253028382761
vn 0 0.500000174843842 -0.8660253028382761
vn 0 -0.2588189595935752 -0.9659258492011171
vn 0 0.2588189595935752 0.9659258492011171
vn 0 -0.2588189595935757 0.9659258492011171
vn 0 0.2588189595935757 -0.9659258492011171
vn 0 0 -1
vn 0 0 1
usemtl material_0_0
f 1//1 2//2 3//2
f 2//2 1//1 4//1
f 3//3 2//3 1//4
f 4//4 1//4 2//3
f 5//5 3//2 2//2
f 2//3 3//3 5//6
f 3//7 6//7 1//7
f 1//8 6//8 3//8
f 4//1 1//1 7//1
f 7//4 1//4 4//4
f 8//8 2//8 4//8
f 4//7 2//7 8//7
f 3//2 5//5 9//5
f 9//6 5//6 3//3
f 2//8 10//8 5//8
f 5//7 10//7 2//7
f 6//7 3//7 9//7
f 9//8 3//8 6//8
f 6//9 7//1 1//1
f 1//4 7//4 6//10
f 7//1 8//9 4//1
f 4//4 8//10 7//4
f 2//8 8//8 10//8
f 10//7 8//7 2//7
f 11//11 9//5 5//5
f 5//6 9//6 11//12
f 5//8 10//8 12//8
f 12//7 10//7 5//7
f 6//7 9//7 13//7
f 13//8 9//8 6//8
f 8//9 7//1 6//9
f 6//10 7//4 8//10
f 8//9 13//13 10//13
f 10//14 13//14 8//10
f 9//5 11//11 14//11
f 14//12 11//12 9//6
f 5//8 12//8 11//8
f 11//7 12//7 5//7
f 10//13 15//15 12//15
f 12//16 15//16 10//14
f 13//7 9//7 14//7
f 14//8 9//8 13//8
f 13//13 8//9 6//9
f 6//10 8//10 13//14
f 15//15 10//13 13//13
f 13//14 10//14 15//16
f 11//11 16//17 14//11
f 14//12 16//18 11//12
f 11//8 12//8 17//8
f 17//7 12//7 11//7
f 15//15 18//19 12//15
f 12//16 18//20 15//16
f 13//7 14//7 15//7
f 15//8 14//8 13//8
f 16//17 11//11 17//17
f 17//18 11//12 16//18
f 15//7 14//7 16//7
f 16//8 14//8 15//8
f 17//8 12//8 18//8
f 18//7 12//7 17//7
f 18//19 15//15 19//19
f 19//20 15//16 18//20
f 17//17 20//21 16//17
f 16//18 20//22 17//18
f 15//7 16//7 19//7
f 19//8 16//8 15//8
f 17//8 18//8 21//8
f 21//7 18//7 17//7
f 22//23 18//19 19//19
f 19//20 18//20 22//24
f 20//21 17//17 23//21
f 23//22 17//18 20//22
f 19//7 16//7 20//7
f 20//8 16//8 19//8
f 18//19 22//23 21//23
f 21//24 22//24 18//20
f 17//8 21//8 23//8
f 23//7 21//7 17//7
f 19//7 20//7 22//7
f 22//8 20//8 19//8
f 23//21 24//25 20//21
f 20//22 24//26 23//22
f 22//23 25//26 21//23
f 21//24 25//25 22//24
f 23//8 21//8 26//8
f 26//7 21//7 23//7
f 22//7 20//7 24//7
f 24//8 20//8 22//8
f 24//25 23//21 26//25
f 26//26 23//22 24//26
f 25//26 22//23 27//26
f 27//25 22//24 25//25
f 26//8 21//8 25//8
f 25//7 21//7 26//7
f 22//7 24//7 27//7
f 27//8 24//8 22//8
f 26//25 28//24 24//25
f 24//26 28//23 26//26
f 29//22 25//26 27//26
f 27//25 25//25 29//21
f 26//8 25//8 30//8
f 30//7 25//7 26//7
f 27//7 24//7 28//7
f 28//8 24//8 27//8
f 28//24 26//25 31//24
f 31//23 26//26 28//23
f 25//26 29//22 30//22
f 30//21 29//21 25//25
f 27//7 28//7 29//7
f 29//8 28//8 27//8
f 26//8 30//8 31//8
f 31//7 30//7 26//7
f 31//24 32//20 28//24
f 28//23 32//19 31//23
f 29//22 33//18 30//22
f 30//21 33//17 29//21
f 29//7 28//7 32//7
f 32//8 28//8 29//8
f 31//8 30//8 33//8
f 33//7 30//7 31//7
f 32//20 31//24 34//20
f 34//19 31//23 32//19
f 33//18 29//22 35//18
f 35//17 29//21 33//17
f 29//7 32//7 35//7
f 35//8 32//8 29//8
f 31//8 33//8 34//8
f 34//7 33//7 31//7
f 34//20 36//16 32//20
f 32//19 36//15 34//19
f 35//18 37//12 33//18
f 33//17 37//11 35//17
f 35//7 32//7 36//7
f 36//8 32//8 35//8
f 34//8 33//8 37//8
f 37//7 33//7 34//7
f 36//16 34//20 38//16
f 38//15 34//19 36//15
f 37//12 35//18 39//12
f 39//11 35//17 37//11
f 35//7 36//7 39//7
f 39//8 36//8 35//8
f 34//8 37//8 38//8
f 38//7 37//7 34//7
f 38//16 40//14 36//16
f 36//15 40//13 38//15
f 39//12 41//6 37//12
f 37//11 41//5 39//11
f 39//7 36//7 40//7
f 40//8 36//8 39//8
f 38//8 37//8 41//8
f 41//7 37//7 38//7
f 40//14 38//16 42//14
f 42//13 38//15 40//13
f 41//6 39//12 43//6
f 43//5 39//11 41//5
f 39//7 40//7 43//7
f 43//8 40//8 39//8
f 38//8 41//8 42//8
f 42//7 41//7 38//7
f 42//14 44//10 40//14
f 40//13 44//9 42//13
f 43//6 45//3 41//6
f 41//5 45//2 43//5
f 43//7 40//7 44//7
f 44//8 40//8 43//8
f 42//8 41//8 45//8
f 45//7 41//7 42//7
f 44//10 42//14 46//10
f 46//9 42//13 44//9
f 45//3 43//6 47//3
f 47//2 43//5 45//2
f 43//7 44//7 47//7
f 47//8 44//8 43//8
f 42//8 45//8 46//8
f 46//7 45//7 42//7
f 46//10 48//4 44//10
f 44//9 48//1 46//9
f 49//4 45//3 47//3
f 47//2 45//2 49//1
f 47//7 44//7 48//7
f 48//8 44//8 47//8
f 46//8 45//8 50//8
f 50//7 45//7 46//7
f 48//4 46//10 50//4
f 50//1 46//9 48//1
f 45//3 49//4 50//4
f 50//1 49//1 45//2
f 47//3 48//4 49//4
f 49//1 48//1 47//2
f 48//4 50//4 49//4
f 49//1 50//1 48//1
