# SSTK version 0.8.0
# 35
mtllib original-35.mtl
o mesh181/mesh181-geometry#mesh181-geometry
v 0.081923 0.021400 0.662052
v 0.061759 0.021400 -0.483694
v 0.081923 0.021400 -0.483694
v 0.061759 0.021400 0.662052
v 0.061759 0.080704 -0.483694
v 0.081923 0.104425 -0.483694
v 0.061759 -0.002321 0.662052
v 0.061759 0.080704 0.686960
v 0.081923 0.104425 0.686960
v 0.081923 -0.002321 0.662052
v 0.061759 -0.002321 0.686960
v 0.036852 0.080704 -0.359156
v -0.079383 0.104425 -0.483694
v 0.081923 -0.002321 0.686960
v 0.036852 0.104425 -0.359156
v 0.035639 0.080704 -0.368826
v 0.035639 0.080704 -0.349487
v -0.059220 0.080704 -0.483694
v -0.023891 0.104425 -0.385575
v 0.035639 0.104425 -0.368826
v 0.035639 0.104425 -0.349487
v 0.032085 0.080704 -0.377837
v 0.032085 0.080704 -0.340476
v 0.026430 0.080704 -0.385575
v -0.079383 0.021400 -0.483694
v -0.029545 0.104425 -0.377837
v -0.016522 0.104425 -0.391513
v -0.079383 0.104425 0.686960
v 0.032085 0.104425 -0.377837
v 0.032085 0.104425 -0.340476
v 0.026430 0.080704 -0.332738
v 0.019061 0.080704 -0.391513
v -0.059220 0.021400 -0.483694
v -0.033100 0.104425 -0.368826
v -0.029545 0.080704 -0.377837
v -0.016522 0.080704 -0.391513
v -0.007940 0.104425 -0.395245
v 0.001270 0.104425 0.388069
v -0.059220 0.080704 0.686960
v 0.026430 0.104425 -0.385575
v 0.026430 0.104425 -0.332738
v 0.019061 0.080704 -0.326801
v 0.019061 0.104425 -0.391513
v 0.010479 0.080704 -0.395245
v -0.059220 0.021400 0.662052
v -0.079383 0.021400 0.662052
v -0.034313 0.104425 -0.359156
v -0.033100 0.080704 -0.368826
v -0.023891 0.080704 -0.385575
v -0.007940 0.080704 -0.395245
v 0.001270 0.104425 -0.396518
v 0.010479 0.104425 0.386796
v -0.007940 0.104425 0.386796
v -0.059220 -0.002321 0.686960
v 0.001270 0.080704 0.388069
v 0.019061 0.104425 -0.326801
v 0.010479 0.080704 -0.323068
v 0.010479 0.104425 -0.395245
v 0.001270 0.080704 -0.396518
v -0.079383 -0.002321 0.686960
v -0.033100 0.104425 -0.349487
v -0.034313 0.080704 -0.359156
v 0.019061 0.104425 0.383064
v -0.016522 0.104425 0.383064
v -0.007940 0.080704 0.386796
v 0.010479 0.080704 0.386796
v 0.010479 0.104425 -0.323068
v 0.001270 0.080704 -0.321795
v -0.079383 -0.002321 0.662052
v -0.029545 0.104425 -0.340476
v -0.033100 0.080704 -0.349487
v 0.026430 0.104425 0.377126
v -0.023891 0.104425 0.377126
v -0.016522 0.080704 0.383064
v -0.059220 -0.002321 0.662052
v 0.019061 0.080704 0.383064
v 0.001270 0.104425 -0.321795
v 0.036852 0.080704 0.350708
v -0.023891 0.104425 -0.332738
v 0.032085 0.104425 0.369389
v -0.029545 0.104425 0.369389
v -0.023891 0.080704 0.377126
v 0.026430 0.080704 0.377126
v 0.035639 0.104425 0.341038
v 0.035639 0.080704 0.360378
v 0.035639 0.080704 0.341038
v -0.029545 0.080704 -0.340476
v -0.016522 0.104425 -0.326801
v -0.023891 0.080704 -0.332738
v 0.035639 0.104425 0.360378
v 0.032085 0.080704 0.369389
v -0.033100 0.104425 0.360378
v -0.029545 0.080704 0.369389
v -0.007940 0.104425 -0.323068
v 0.032085 0.104425 0.332027
v 0.036852 0.104425 0.350708
v 0.032085 0.080704 0.332027
v -0.016522 0.080704 -0.326801
v -0.034313 0.104425 0.350708
v -0.033100 0.080704 0.360378
v -0.007940 0.080704 -0.323068
v 0.026430 0.104425 0.324289
v 0.026430 0.080704 0.324289
v -0.033100 0.104425 0.341038
v -0.034313 0.080704 0.350708
v 0.019061 0.104425 0.318352
v 0.019061 0.080704 0.318352
v -0.029545 0.104425 0.332027
v 0.010479 0.104425 0.314620
v 0.010479 0.080704 0.314620
v -0.033100 0.080704 0.341038
v -0.023891 0.104425 0.324289
v 0.001270 0.104425 0.313347
v 0.001270 0.080704 0.313347
v -0.029545 0.080704 0.332027
v -0.016522 0.104425 0.318352
v -0.007940 0.104425 0.314620
v -0.007940 0.080704 0.314620
v -0.023891 0.080704 0.324289
v -0.016522 0.080704 0.318352
vt 0 0.765625
vt -0.015625 0.046875
vt 0 0.046875
vt -0.015625 0.765625
vt -0.015625 0.054687
vt -0.015625 0.015625
vt 0 0.054687
vt -0.054687 0.046875
vt -0.054687 0.765625
vt -0.015625 0.070312
vt 0.015625 0.78125
vt 0.054687 0.046875
vt 0.054687 0.765625
vt 0.015625 0.046875
vt 0 0
vt 0 0.78125
vt 0 0.070312
vt 0.070312 0.78125
vt 0.070312 0.765625
vt -0.034926 0.125
vt -0.015625 0.78125
vt -0.125 0
vt -0.070312 0.78125
vt 0.034926 0.125
vt -0.070312 0.765625
vt 0.015625 0.070312
vt 0.015625 0.015625
vt -0.035866 0.118934
vt -0.035866 0.131066
vt -0.109375 0.015625
vt 0.125 0.046875
vt 0.081997 0.108427
vt 0.035866 0.118934
vt 0.035866 0.131066
vt -0.038621 0.113281
vt 0 0.118181
vt 0.015625 0.112043
vt 0.015625 0.118181
vt -0.038621 0.136719
vt 0 0.135011
vt 0.015625 0.128873
vt 0.015625 0.135011
vt -0.043003 0.108427
vt -0.109375 0.046875
vt -0.125 0.054687
vt 0.086379 0.113281
vt 0.076287 0.104703
vt 0.125 0
vt 0.038621 0.113281
vt 0 0.112043
vt 0 0.128873
vt 0.038621 0.136719
vt 0 0.091203
vt 0.015625 0.084915
vt 0.015625 0.091203
vt -0.043003 0.141573
vt 0 0.139821
vt 0.015625 0.133533
vt 0.015625 0.139821
vt 0 0.133533
vt -0.048713 0.104703
vt -0.109375 0.054687
vt 0.089134 0.118934
vt -0.015625 0.141968
vt 0 0.135429
vt 0 0.141968
vt 0 0.127914
vt -0.015625 0.121096
vt 0 0.121096
vt 0.069637 0.102361
vt 0.0625 0.59375
vt 0.125 0.78125
vt 0.109375 0.015625
vt 0.043003 0.108427
vt 0 0.084915
vt 0.043003 0.141573
vt 0 0.058208
vt 0.015625 0.051668
vt 0.015625 0.058208
vt -0.048713 0.145297
vt 0 0.133903
vt 0.015625 0.127363
vt 0.015625 0.133903
vt 0 0.127363
vt 0.015625 0.023215
vt 0 0.016397
vt 0.015625 0.016397
vt -0.055363 0.102361
vt -0.109375 0.765625
vt -0.125 0.046875
vt 0.090074 0.125
vt -0.015625 0.145961
vt 0 0.139673
vt 0 0.145961
vt -0.015625 0.135429
vt -0.015625 0.139673
vt -0.015625 0.127914
vt -0.015625 0.099678
vt 0 0.106729
vt -0.015625 0.106729
vt 0 0.099678
vt 0.0625 0.101562
vt 0.055363 0.592951
vt 0.069637 0.592951
vt 0.109375 0.070313
vt -0.109375 0.78125
vt -0.0625 0.59375
vt 0.048713 0.104703
vt 0 0.051668
vt 0.048713 0.145297
vt -0.055363 0.147639
vt 0 0.120178
vt 0.015625 0.11336
vt 0.015625 0.120178
vt 0 0.11336
vt 0 0.023215
vt 0 -0.018227
vt 0.015625 -0.011177
vt 0 -0.011177
vt 0.015625 -0.018227
vt -0.0625 0.101562
vt -0.125 0.765625
vt 0.070313 0.78125
vt 0.089134 0.131066
vt -0.015625 0.137314
vt 0 0.131175
vt 0 0.137314
vt -0.015625 0.131175
vt -0.086379 0.113281
vt -0.081997 0.108427
vt -0.089134 0.118934
vt -0.076287 0.104703
vt -0.069637 0.102361
vt -0.015625 0.073407
vt 0 0.080588
vt -0.015625 0.080588
vt 0 0.073407
vt 0.055363 0.102361
vt 0.048713 0.59061
vt 0 0.120962
vt 0.015625 0.128144
vt 0 0.128144
vt 0.076287 0.59061
vt 0 0.003919
vt -0.015625 -0.003262
vt 0 -0.003262
vt 0.125 0.070313
vt -0.069637 0.592951
vt -0.055363 0.592951
vt 0.055363 0.147639
vt -0.0625 0.148438
vt 0 0.101252
vt 0.015625 0.094202
vt 0.015625 0.101252
vt 0 0.094202
vt 0 -0.050817
vt 0.015625 -0.043636
vt 0 -0.043636
vt 0.015625 -0.050817
vt -0.090074 0.125
vt -0.125 0.070312
vt 0.086379 0.136719
vt -0.015625 0.115879
vt 0 0.10974
vt 0 0.115879
vt -0.015625 0.10974
vt 0.043003 0.586885
vt 0 0.242089
vt 0.015625 0.24914
vt 0 0.24914
vt 0.015625 0.120962
vt -0.015625 0.003919
vt 0.081997 0.586885
vt 0 0.131234
vt -0.015625 0.124184
vt 0 0.124184
vt -0.015625 0.131234
vt -0.125 0.78125
vt -0.076287 0.59061
vt -0.048713 0.59061
vt 0.0625 0.148438
vt -0.034926 0.570312
vt 0.015625 0.07862
vt 0 0.071439
vt 0.015625 0.071439
vt -0.089134 0.131066
vt -0.109375 0.070312
vt 0.081997 0.141573
vt 0 0.085063
vt -0.015625 0.078775
vt 0 0.078775
vt 0.038621 0.582031
vt 0 0.356634
vt 0.015625 0.363452
vt 0 0.363452
vt 0.015625 0.242089
vt 0.086379 0.582031
vt 0 0.258753
vt -0.015625 0.251935
vt 0 0.251935
vt -0.015625 0.258753
vt -0.081997 0.586885
vt -0.043003 0.586885
vt 0 0.07862
vt 0.035866 0.564246
vt -0.035866 0.576379
vt -0.035866 0.564246
vt -0.086379 0.136719
vt 0.076287 0.145297
vt -0.015625 0.050142
vt 0 0.043602
vt 0 0.050142
vt -0.015625 0.085063
vt 0.035866 0.576379
vt 0.015625 0.457911
vt 0 0.46445
vt 0 0.457911
vt 0.015625 0.356634
vt 0.089134 0.576379
vt -0.015625 0.38069
vt 0 0.37415
vt 0 0.38069
vt -0.086379 0.582031
vt -0.038621 0.582031
vt -0.015625 -0.045605
vt 0 -0.052786
vt 0 -0.045605
vt 0.038621 0.558594
vt 0.034926 0.570312
vt 0 0.575077
vt 0.015625 0.568938
vt 0.015625 0.575077
vt 0 0.558247
vt 0.015625 0.552108
vt 0.015625 0.558247
vt -0.038621 0.558594
vt -0.081997 0.141573
vt 0.069637 0.147639
vt -0.015625 0.015479
vt 0 0.008661
vt 0 0.015479
vt -0.015625 0.043602
vt -0.015625 0.008661
vt 0.015625 0.533843
vt 0 0.540132
vt 0 0.533843
vt 0.015625 0.46445
vt 0.015625 0.540132
vt 0.090074 0.570312
vt 0 0.485374
vt -0.015625 0.479085
vt 0 0.479085
vt -0.015625 0.37415
vt -0.089134 0.576379
vt -0.015625 -0.052786
vt 0.043003 0.55374
vt 0.015625 0.485226
vt 0 0.491514
vt 0 0.485226
vt 0 0.552108
vt 0 0.568938
vt 0.015625 0.491514
vt -0.043003 0.55374
vt -0.076287 0.145297
vt 0 -0.016654
vt -0.015625 -0.023704
vt 0 -0.023704
vt 0.089134 0.564246
vt -0.015625 0.555944
vt 0 0.549806
vt 0 0.555944
vt -0.015625 0.485374
vt -0.090074 0.570312
vt -0.069637 0.147639
vt -0.015625 -0.016654
vt 0.048713 0.550015
vt 0.015625 0.382216
vt 0 0.388755
vt 0 0.382216
vt 0.015625 0.388755
vt -0.048713 0.550015
vt -0.015625 0.577379
vt 0 0.571241
vt 0 0.577379
vt -0.015625 0.549806
vt 0.086379 0.558594
vt 0.055363 0.547674
vt 0.015625 0.259671
vt 0 0.266489
vt 0 0.259671
vt 0.015625 0.266489
vt -0.055363 0.547674
vt -0.015625 0.571241
vt -0.089134 0.564246
vt -0.015625 0.546272
vt 0 0.539984
vt 0 0.546272
vt 0.081997 0.55374
vt 0.0625 0.546875
vt 0.015625 0.129661
vt 0 0.136711
vt 0 0.129661
vt 0.015625 0.136711
vt -0.0625 0.546875
vt -0.086379 0.558594
vt -0.015625 0.539984
vt -0.015625 0.472516
vt 0 0.465977
vt 0 0.472516
vt 0.076287 0.550015
vt 0.069637 0.547674
vt 0.015625 -0.001294
vt 0 0.005887
vt 0 -0.001294
vt 0.015625 0.005887
vt -0.069637 0.547674
vt -0.081997 0.55374
vt -0.015625 0.465977
vt -0.015625 0.371188
vt 0 0.36437
vt 0 0.371188
vt -0.015625 0.130112
vt 0 0.122931
vt 0 0.130112
vt -0.015625 0.122931
vt -0.076287 0.550015
vt -0.015625 0.36437
vt -0.015625 0.254617
vt 0 0.247566
vt 0 0.254617
vt -0.015625 0.247566
vn 0 -1 0
vn 0 1 0
vn 0 0 -1
vn 0 0 1
vn 1 0 0
vn -1 0 0
vn -0.932618054954987 0 0.3608650212641525
vn 0.932618054954987 0 -0.3608650212641525
vn -0.932618054954987 0 -0.3608650212641525
vn 0.932618054954987 0 0.3608650212641525
vn -0.7679439944612039 0 0.6405169953802712
vn 0.7679439944612039 0 -0.6405169953802712
vn -0.7679439944612039 0 -0.6405169953802712
vn 0.7679439944612039 0 0.6405169953802712
vn 0.5689749156068019 0 0.8223548780242217
vn -0.5689749156068019 0 -0.8223548780242217
vn 0.3708290566178139 0 0.9287011417931724
vn -0.3708290566178139 0 -0.9287011417931724
vn -0.5689749156068019 0 0.8223548780242217
vn 0.5689749156068019 0 -0.8223548780242217
vn -0.3708290566178139 0 0.9287011417931724
vn 0.3708290566178139 0 -0.9287011417931724
vn 0.18216692934538606 0 0.9832676186333369
vn -0.18216692934538606 0 -0.9832676186333369
vn -0.18216692934538606 0 0.9832676186333369
vn 0.18216692934538606 0 -0.9832676186333369
usemtl material_0_0
f 1/1/1 2/2/1 3/3/1
f 2/2/1 1/1/1 4/4/1
f 3/3/2 2/2/2 1/1/2
f 4/4/2 1/1/2 2/2/2
f 2/5/3 5/6/3 3/7/3
f 3/7/4 5/6/4 2/5/4
f 3/8/5 6/3/5 1/9/5
f 1/9/6 6/3/6 3/8/6
f 1/7/3 7/10/3 4/5/3
f 4/5/4 7/10/4 1/7/4
f 8/11/6 2/12/6 4/13/6
f 4/13/5 2/12/5 8/11/5
f 2/12/6 8/11/6 5/14/6
f 5/14/5 8/11/5 2/12/5
f 5/6/3 6/15/3 3/7/3
f 3/7/4 6/15/4 5/6/4
f 9/16/5 1/9/5 6/3/5
f 6/3/6 1/9/6 9/16/6
f 7/10/3 1/7/3 10/17/3
f 10/17/4 1/7/4 7/10/4
f 11/18/6 4/13/6 7/19/6
f 7/19/5 4/13/5 11/18/5
f 4/13/6 11/18/6 8/11/6
f 8/11/5 11/18/5 4/13/5
f 12/20/1 5/2/1 8/21/1
f 8/21/2 5/2/2 12/20/2
f 6/15/3 5/6/3 13/22/3
f 13/22/4 5/6/4 6/15/4
f 1/9/5 9/16/5 14/23/5
f 14/23/6 9/16/6 1/9/6
f 6/3/2 15/24/2 9/16/2
f 9/16/1 15/24/1 6/3/1
f 1/9/5 14/23/5 10/25/5
f 10/25/6 14/23/6 1/9/6
f 14/16/1 7/4/1 10/1/1
f 10/1/2 7/4/2 14/16/2
f 7/4/1 14/16/1 11/21/1
f 11/21/2 14/16/2 7/4/2
f 11/26/4 14/17/4 8/27/4
f 8/27/3 14/17/3 11/26/3
f 16/28/1 5/2/1 12/20/1
f 12/20/2 5/2/2 16/28/2
f 12/20/1 8/21/1 17/29/1
f 17/29/2 8/21/2 12/20/2
f 13/22/3 5/6/3 18/30/3
f 18/30/4 5/6/4 13/22/4
f 13/31/2 19/32/2 6/3/2
f 6/3/1 19/32/1 13/31/1
f 9/15/4 8/27/4 14/17/4
f 14/17/3 8/27/3 9/15/3
f 15/24/2 6/3/2 20/33/2
f 20/33/1 6/3/1 15/24/1
f 9/16/2 15/24/2 21/34/2
f 21/34/1 15/24/1 9/16/1
f 22/35/1 5/2/1 16/28/1
f 16/28/2 5/2/2 22/35/2
f 15/36/6 16/37/7 12/38/6
f 12/38/5 16/37/8 15/36/5
f 17/29/1 8/21/1 23/39/1
f 23/39/2 8/21/2 17/29/2
f 21/40/9 12/41/6 17/42/9
f 17/42/10 12/41/5 21/40/10
f 5/2/1 24/43/1 18/44/1
f 18/44/2 24/43/2 5/2/2
f 18/30/3 25/45/3 13/22/3
f 13/22/4 25/45/4 18/30/4
f 19/32/2 13/31/2 26/46/2
f 26/46/1 13/31/1 19/32/1
f 6/3/2 19/32/2 27/47/2
f 27/47/1 19/32/1 6/3/1
f 8/27/4 9/15/4 28/48/4
f 28/48/3 9/15/3 8/27/3
f 20/33/2 6/3/2 29/49/2
f 29/49/1 6/3/1 20/33/1
f 16/37/7 15/36/6 20/50/7
f 20/50/8 15/36/5 16/37/8
f 12/41/6 21/40/9 15/51/6
f 15/51/5 21/40/10 12/41/5
f 9/16/2 21/34/2 30/52/2
f 30/52/1 21/34/1 9/16/1
f 24/43/1 5/2/1 22/35/1
f 22/35/2 5/2/2 24/43/2
f 20/53/7 22/54/11 16/55/7
f 16/55/8 22/54/12 20/53/8
f 23/39/1 8/21/1 31/56/1
f 31/56/2 8/21/2 23/39/2
f 30/57/13 17/58/9 23/59/13
f 23/59/14 17/58/10 30/57/14
f 17/58/9 30/57/13 21/60/9
f 21/60/10 30/57/14 17/58/10
f 18/44/1 24/43/1 32/61/1
f 32/61/2 24/43/2 18/44/2
f 25/45/3 18/30/3 33/62/3
f 33/62/4 18/30/4 25/45/4
f 25/12/6 28/16/6 13/3/6
f 13/3/5 28/16/5 25/12/5
f 26/46/2 13/31/2 34/63/2
f 34/63/1 13/31/1 26/46/1
f 35/64/14 19/65/15 26/66/14
f 26/66/13 19/65/16 35/64/13
f 19/67/15 36/68/17 27/69/17
f 27/69/18 36/68/18 19/67/16
f 6/3/2 27/47/2 37/70/2
f 37/70/1 27/47/1 6/3/1
f 9/16/2 38/71/2 28/72/2
f 28/72/1 38/71/1 9/16/1
f 8/27/4 28/48/4 39/73/4
f 39/73/3 28/48/3 8/27/3
f 29/49/2 6/3/2 40/74/2
f 40/74/1 6/3/1 29/49/1
f 22/54/11 20/53/7 29/75/11
f 29/75/12 20/53/8 22/54/12
f 9/16/2 30/52/2 41/76/2
f 41/76/1 30/52/1 9/16/1
f 29/77/11 24/78/19 22/79/11
f 22/79/12 24/78/20 29/77/12
f 31/56/1 8/21/1 42/80/1
f 42/80/2 8/21/2 31/56/2
f 41/81/16 23/82/13 31/83/16
f 31/83/15 23/82/14 41/81/15
f 23/82/13 41/81/16 30/84/13
f 30/84/14 41/81/15 23/82/14
f 24/85/19 43/86/21 32/87/21
f 32/87/22 43/86/22 24/85/20
f 18/44/1 32/61/1 44/88/1
f 44/88/2 32/61/2 18/44/2
f 33/8/5 18/2/5 45/9/5
f 45/9/6 18/2/6 33/8/6
f 45/89/1 25/90/1 33/44/1
f 33/44/2 25/90/2 45/89/2
f 28/16/6 25/12/6 46/13/6
f 46/13/5 25/12/5 28/16/5
f 47/91/2 13/31/2 28/72/2
f 28/72/1 13/31/1 47/91/1
f 34/63/2 13/31/2 47/91/2
f 47/91/1 13/31/1 34/63/1
f 48/92/10 26/93/14 34/94/10
f 34/94/9 26/93/13 48/92/9
f 19/65/15 35/64/14 49/95/15
f 49/95/16 35/64/13 19/65/16
f 26/93/14 48/92/10 35/96/14
f 35/96/13 48/92/9 26/93/13
f 36/68/17 19/67/15 49/97/15
f 49/97/16 19/67/16 36/68/18
f 50/98/23 27/99/17 36/100/17
f 36/100/18 27/99/18 50/98/24
f 27/99/17 50/98/23 37/101/23
f 37/101/24 50/98/24 27/99/18
f 6/3/2 37/70/2 51/102/2
f 51/102/1 37/70/1 6/3/1
f 9/16/2 52/103/2 38/71/2
f 38/71/1 52/103/1 9/16/1
f 53/104/2 28/72/2 38/71/2
f 38/71/1 28/72/1 53/104/1
f 39/73/4 28/48/4 54/105/4
f 54/105/3 28/48/3 39/73/3
f 39/106/1 55/107/1 8/21/1
f 8/21/2 55/107/2 39/106/2
f 40/74/2 6/3/2 43/108/2
f 43/108/1 6/3/1 40/74/1
f 24/78/19 29/77/11 40/109/19
f 40/109/20 29/77/12 24/78/20
f 9/16/2 41/76/2 56/110/2
f 56/110/1 41/76/1 9/16/1
f 42/80/1 8/21/1 57/111/1
f 57/111/2 8/21/2 42/80/2
f 56/112/18 31/113/16 42/114/18
f 42/114/17 31/113/15 56/112/17
f 31/113/16 56/112/18 41/115/16
f 41/115/15 56/112/17 31/113/15
f 43/86/21 24/85/19 40/116/19
f 40/116/20 24/85/20 43/86/22
f 58/117/25 32/118/21 43/119/21
f 43/119/22 32/118/22 58/117/26
f 32/118/21 58/117/25 44/120/25
f 44/120/26 58/117/26 32/118/22
f 18/44/1 44/88/1 59/121/1
f 59/121/2 44/88/2 18/44/2
f 39/21/5 45/9/5 18/2/5
f 18/2/6 45/9/6 39/21/6
f 25/90/1 45/89/1 46/122/1
f 46/122/2 45/89/2 25/90/2
f 46/13/6 60/123/6 28/16/6
f 28/16/5 60/123/5 46/13/5
f 47/91/2 28/72/2 61/124/2
f 61/124/1 28/72/1 47/91/1
f 62/125/5 34/126/10 47/127/5
f 47/127/6 34/126/9 62/125/6
f 34/126/10 62/125/5 48/128/10
f 48/128/9 62/125/6 34/126/9
f 35/129/1 18/44/1 49/130/1
f 49/130/2 18/44/2 35/129/2
f 48/131/1 18/44/1 35/129/1
f 35/129/2 18/44/2 48/131/2
f 49/130/1 18/44/1 36/132/1
f 36/132/2 18/44/2 49/130/2
f 36/132/1 18/44/1 50/133/1
f 50/133/2 18/44/2 36/132/2
f 59/134/4 37/135/23 50/136/23
f 50/136/24 37/135/24 59/134/3
f 37/135/23 59/134/4 51/137/4
f 51/137/3 59/134/3 37/135/24
f 58/138/2 6/3/2 51/102/2
f 51/102/1 6/3/1 58/138/1
f 9/16/2 63/139/2 52/103/2
f 52/103/1 63/139/1 9/16/1
f 52/140/24 55/141/3 38/142/3
f 38/142/4 55/141/4 52/140/23
f 64/143/2 28/72/2 53/104/2
f 53/104/1 28/72/1 64/143/1
f 38/144/3 65/145/26 53/146/26
f 53/146/25 65/145/25 38/144/4
f 54/105/4 28/48/4 60/147/4
f 60/147/3 28/48/3 54/105/3
f 45/9/5 39/21/5 54/23/5
f 54/23/6 39/21/6 45/9/6
f 39/106/1 65/148/1 55/107/1
f 55/107/2 65/148/2 39/106/2
f 66/149/1 8/21/1 55/107/1
f 55/107/2 8/21/2 66/149/2
f 43/108/2 6/3/2 58/138/2
f 58/138/1 6/3/1 43/108/1
f 9/16/2 56/110/2 67/150/2
f 67/150/1 56/110/1 9/16/1
f 57/111/1 8/21/1 68/151/1
f 68/151/2 8/21/2 57/111/2
f 67/152/24 42/153/18 57/154/24
f 57/154/23 42/153/17 67/152/23
f 42/153/18 67/152/24 56/155/18
f 56/155/17 67/152/23 42/153/17
f 51/156/4 44/157/25 58/158/25
f 58/158/26 44/157/26 51/156/3
f 44/157/25 51/156/4 59/159/4
f 59/159/3 51/156/3 44/157/26
f 50/133/1 18/44/1 59/121/1
f 59/121/2 18/44/2 50/133/2
f 18/44/1 62/160/1 39/106/1
f 39/106/2 62/160/2 18/44/2
f 45/62/3 69/161/3 46/45/3
f 46/45/4 69/161/4 45/62/4
f 60/123/6 46/13/6 69/19/6
f 69/19/5 46/13/5 60/123/5
f 61/124/2 28/72/2 70/162/2
f 70/162/1 28/72/1 61/124/1
f 71/163/8 47/164/5 61/165/8
f 61/165/7 47/164/6 71/163/7
f 47/164/5 71/163/8 62/166/5
f 62/166/6 71/163/7 47/164/6
f 62/160/1 18/44/1 48/131/1
f 48/131/2 18/44/2 62/160/2
f 9/16/2 72/167/2 63/139/2
f 63/139/1 72/167/1 9/16/1
f 63/168/18 66/169/24 52/170/24
f 52/170/23 66/169/23 63/168/17
f 55/141/3 52/140/24 66/171/24
f 66/171/23 52/140/23 55/141/4
f 65/145/26 38/144/3 55/172/3
f 55/172/4 38/144/4 65/145/25
f 73/173/2 28/72/2 64/143/2
f 64/143/1 28/72/1 73/173/1
f 53/174/26 74/175/22 64/176/22
f 64/176/21 74/175/21 53/174/25
f 74/175/22 53/174/26 65/177/26
f 65/177/25 53/174/25 74/175/21
f 69/122/1 54/106/1 60/178/1
f 60/178/2 54/106/2 69/122/2
f 45/9/5 54/23/5 75/25/5
f 75/25/6 54/23/6 45/9/6
f 39/106/1 74/179/1 65/148/1
f 65/148/2 74/179/2 39/106/2
f 76/180/1 8/21/1 66/149/1
f 66/149/2 8/21/2 76/180/2
f 9/16/2 67/150/2 77/181/2
f 77/181/1 67/150/1 9/16/1
f 68/151/1 8/21/1 78/182/1
f 78/182/2 8/21/2 68/151/2
f 68/183/3 67/184/24 57/185/24
f 57/185/23 67/184/23 68/183/4
f 39/106/1 62/160/1 71/186/1
f 71/186/2 62/160/2 39/106/2
f 69/161/3 45/62/3 75/187/3
f 75/187/4 45/62/4 69/161/4
f 70/162/2 28/72/2 79/188/2
f 79/188/1 28/72/1 70/162/1
f 70/189/12 71/190/8 61/191/8
f 61/191/7 71/190/7 70/189/11
f 9/16/2 80/192/2 72/167/2
f 72/167/1 80/192/1 9/16/1
f 72/193/16 76/194/18 63/195/18
f 63/195/17 76/194/17 72/193/15
f 66/169/24 63/168/18 76/196/18
f 76/196/17 63/168/17 66/169/23
f 81/197/2 28/72/2 73/173/2
f 73/173/1 28/72/1 81/197/1
f 64/198/22 82/199/20 73/200/20
f 73/200/19 82/199/19 64/198/21
f 82/199/20 64/198/22 74/201/22
f 74/201/21 64/198/21 82/199/19
f 54/106/1 69/122/1 75/89/1
f 75/89/2 69/122/2 54/106/2
f 39/106/1 82/202/1 74/179/1
f 74/179/2 82/202/2 39/106/2
f 83/203/1 8/21/1 76/180/1
f 76/180/2 8/21/2 83/203/2
f 67/184/24 68/183/3 77/204/3
f 77/204/4 68/183/4 67/184/23
f 9/16/2 77/181/2 84/205/2
f 84/205/1 77/181/1 9/16/1
f 78/182/1 8/21/1 85/206/1
f 85/206/2 8/21/2 78/182/2
f 68/151/1 78/182/1 86/207/1
f 86/207/2 78/182/2 68/151/2
f 39/106/1 71/186/1 87/208/1
f 87/208/2 71/186/2 39/106/2
f 79/188/2 28/72/2 88/209/2
f 88/209/1 28/72/1 79/188/1
f 89/210/20 70/211/12 79/212/20
f 79/212/19 70/211/11 89/210/19
f 71/190/8 70/189/12 87/213/12
f 87/213/11 70/189/11 71/190/7
f 9/16/2 90/214/2 80/192/2
f 80/192/1 90/214/1 9/16/1
f 91/215/13 72/216/16 80/217/13
f 80/217/14 72/216/15 91/215/14
f 76/194/18 72/193/16 83/218/16
f 83/218/15 72/193/15 76/194/17
f 92/219/2 28/72/2 81/197/2
f 81/197/1 28/72/1 92/219/1
f 82/220/20 81/221/12 73/222/20
f 73/222/19 81/221/11 82/220/19
f 39/106/1 93/223/1 82/202/1
f 82/202/2 93/223/2 39/106/2
f 91/224/1 8/21/1 83/203/1
f 83/203/2 8/21/2 91/224/2
f 68/225/3 94/226/26 77/227/3
f 77/227/4 94/226/25 68/225/4
f 84/205/2 77/181/2 95/228/2
f 95/228/1 77/181/1 84/205/1
f 9/16/2 84/205/2 96/229/2
f 96/229/1 84/205/1 9/16/1
f 85/206/1 8/21/1 91/224/1
f 91/224/2 8/21/2 85/206/2
f 90/230/9 78/231/6 85/232/9
f 85/232/10 78/231/5 90/230/10
f 96/233/6 86/234/7 78/235/6
f 78/235/5 86/234/8 96/233/5
f 68/151/1 86/207/1 97/236/1
f 97/236/2 86/207/2 68/151/2
f 39/106/1 87/208/1 89/237/1
f 89/237/2 87/208/2 39/106/2
f 88/209/2 28/72/2 94/238/2
f 94/238/1 28/72/1 88/209/1
f 98/239/22 79/240/20 88/241/22
f 88/241/21 79/240/19 98/239/21
f 70/211/12 89/210/20 87/242/12
f 87/242/11 89/210/19 70/211/11
f 79/240/20 98/239/22 89/243/20
f 89/243/19 98/239/21 79/240/19
f 9/16/2 96/229/2 90/214/2
f 90/214/1 96/229/1 9/16/1
f 85/244/9 80/245/13 90/246/9
f 90/246/10 80/245/14 85/244/10
f 72/216/16 91/215/13 83/247/16
f 83/247/15 91/215/14 72/216/15
f 80/245/13 85/244/9 91/248/13
f 91/248/14 85/244/10 80/245/14
f 99/249/2 28/72/2 92/219/2
f 92/219/1 28/72/1 99/249/1
f 81/250/12 100/251/8 92/252/8
f 92/252/7 100/251/7 81/250/11
f 81/221/12 82/220/20 93/253/12
f 93/253/11 82/220/19 81/221/11
f 39/106/1 100/254/1 93/223/1
f 93/223/2 100/254/2 39/106/2
f 94/226/26 68/225/3 101/255/26
f 101/255/25 68/225/4 94/226/25
f 94/238/2 28/72/2 77/181/2
f 77/181/1 28/72/1 94/238/1
f 95/228/2 77/181/2 102/256/2
f 102/256/1 77/181/1 95/228/1
f 97/257/11 84/258/7 95/259/11
f 95/259/12 84/258/8 97/257/12
f 86/234/7 96/233/6 84/260/7
f 84/260/8 96/233/5 86/234/8
f 78/231/6 90/230/9 96/261/6
f 96/261/5 90/230/10 78/231/5
f 84/258/7 97/257/11 86/262/7
f 86/262/8 97/257/12 84/258/8
f 68/151/1 97/236/1 103/263/1
f 103/263/2 97/236/2 68/151/2
f 39/106/1 89/237/1 98/264/1
f 98/264/2 89/237/2 39/106/2
f 94/265/26 98/266/22 88/267/22
f 88/267/21 98/266/21 94/265/25
f 104/268/2 28/72/2 99/249/2
f 99/249/1 28/72/1 104/268/1
f 100/269/8 99/270/5 92/271/8
f 92/271/7 99/270/6 100/269/7
f 100/251/8 81/250/12 93/272/12
f 93/272/11 81/250/11 100/251/7
f 39/106/1 105/273/1 100/254/1
f 100/254/2 105/273/2 39/106/2
f 39/106/1 101/274/1 68/151/1
f 68/151/2 101/274/2 39/106/2
f 98/266/22 94/265/26 101/275/26
f 101/275/25 94/265/25 98/266/21
f 77/181/2 28/72/2 104/268/2
f 104/268/1 28/72/1 77/181/1
f 102/256/2 77/181/2 106/276/2
f 106/276/1 77/181/1 102/256/1
f 103/277/19 95/278/11 102/279/19
f 102/279/20 95/278/12 103/277/20
f 95/278/11 103/277/19 97/280/11
f 97/280/12 103/277/20 95/278/12
f 68/151/1 103/263/1 107/281/1
f 107/281/2 103/263/2 68/151/2
f 39/106/1 98/264/1 101/274/1
f 101/274/2 98/264/2 39/106/2
f 105/282/5 104/283/10 99/284/5
f 99/284/6 104/283/9 105/282/6
f 99/270/5 100/269/8 105/285/5
f 105/285/6 100/269/7 99/270/6
f 39/106/1 68/151/1 105/273/1
f 105/273/2 68/151/2 39/106/2
f 77/181/2 104/268/2 108/286/2
f 108/286/1 104/268/1 77/181/1
f 106/276/2 77/181/2 109/287/2
f 109/287/1 77/181/1 106/276/1
f 107/288/21 102/289/19 106/290/21
f 106/290/22 102/289/20 107/288/22
f 102/289/19 107/288/21 103/291/19
f 103/291/20 107/288/22 102/289/20
f 68/151/1 107/281/1 110/292/1
f 110/292/2 107/281/2 68/151/2
f 104/283/10 105/282/5 111/293/10
f 111/293/9 105/282/6 104/283/9
f 105/273/1 68/151/1 111/294/1
f 111/294/2 68/151/2 105/273/2
f 111/295/10 108/296/14 104/297/10
f 104/297/9 108/296/13 111/295/9
f 77/181/2 108/286/2 112/298/2
f 112/298/1 108/286/1 77/181/1
f 109/287/2 77/181/2 113/299/2
f 113/299/1 77/181/1 109/287/1
f 110/300/25 106/301/21 109/302/25
f 109/302/26 106/301/22 110/300/26
f 106/301/21 110/300/25 107/303/21
f 107/303/22 110/300/26 106/301/22
f 68/151/1 110/292/1 114/304/1
f 114/304/2 110/292/2 68/151/2
f 111/294/1 68/151/1 115/305/1
f 115/305/2 68/151/2 111/294/2
f 108/296/14 111/295/10 115/306/14
f 115/306/13 111/295/9 108/296/13
f 115/307/14 112/308/15 108/309/14
f 108/309/13 112/308/16 115/307/13
f 77/181/2 112/298/2 116/310/2
f 116/310/1 112/298/1 77/181/1
f 77/181/2 117/311/2 113/299/2
f 113/299/1 117/311/1 77/181/1
f 114/312/4 109/313/25 113/314/4
f 113/314/3 109/313/26 114/312/3
f 109/313/25 114/312/4 110/315/25
f 110/315/26 114/312/3 109/313/26
f 118/316/1 68/151/1 114/304/1
f 114/304/2 68/151/2 118/316/2
f 115/305/1 68/151/1 119/317/1
f 119/317/2 68/151/2 115/305/2
f 112/308/15 115/307/14 119/318/15
f 119/318/16 115/307/13 112/308/16
f 119/319/15 116/320/17 112/321/15
f 112/321/16 116/320/18 119/319/16
f 77/181/2 116/310/2 117/311/2
f 117/311/1 116/310/1 77/181/1
f 118/322/23 113/323/4 117/324/23
f 117/324/24 113/323/3 118/322/24
f 113/323/4 118/322/23 114/325/4
f 114/325/3 118/322/24 113/323/3
f 120/326/1 68/151/1 118/316/1
f 118/316/2 68/151/2 120/326/2
f 119/317/1 68/151/1 120/326/1
f 120/326/2 68/151/2 119/317/2
f 116/320/17 119/319/15 120/327/17
f 120/327/18 119/319/16 116/320/18
f 120/328/17 117/329/23 116/330/17
f 116/330/18 117/329/24 120/328/18
f 117/329/23 120/328/17 118/331/23
f 118/331/24 120/328/18 117/329/24
