# SSTK version 0.8.0
# 44
mtllib original-44.mtl
o mesh202/mesh202-geometry#mesh202-geometry
v 0.116912 0.142037 0.537429
v 0.116912 0.142037 0.546840
v 0.116912 0.138290 0.537429
v 0.119877 0.142037 0.537429
v 0.116912 0.138290 0.546840
v 0.119877 0.138290 0.537429
v 0.119877 0.142037 0.546840
v 0.116912 0.162488 0.548947
v 0.116912 0.158670 0.546840
v 0.116912 0.116645 0.546840
v 0.119877 0.138290 0.546840
v 0.119877 0.158670 0.546840
v 0.116912 0.116645 0.548947
v 0.116912 0.158670 0.535797
v 0.119877 0.158670 0.535797
v 0.119877 0.116645 0.548947
v 0.119877 0.116645 0.546840
v 0.116912 0.162488 0.535797
v 0.119877 0.162488 0.548947
v 0.119877 0.162488 0.535797
vt 0.110712 0.820259
vt 0.110712 0.826163
vt 0.108244 0.820259
vt 0.15625 0.820259
vt 0.154297 0.826163
vt 0.154297 0.820259
vt 0.108244 0.826163
vt 0.15625 0.108244
vt 0.154297 0.110712
vt 0.154297 0.108244
vt 0.15625 0.826163
vt 0.15625 0.110712
vt 0.124183 0.827484
vt -0.154297 0.826163
vt -0.15625 0.820259
vt -0.154297 0.820259
vt 0.154297 0.121668
vt 0.093987 0.826163
vt 0.121668 0.826163
vt -0.15625 0.826163
vt 0.15625 0.121668
vt 0.093987 0.827484
vt 0.154297 0.093987
vt 0.121668 0.819235
vt -0.15625 0.819235
vt -0.154297 0.124183
vt -0.15625 0.093987
vt -0.154297 0.093987
vt -0.154297 0.827484
vt 0.15625 0.093987
vt -0.154297 0.819235
vt 0.124183 0.819235
vt -0.15625 0.124183
vt -0.15625 0.827484
vt 0.154297 0.124183
vt 0.15625 0.819235
vt 0.154297 0.827484
vt 0.154297 0.819235
vt 0.15625 0.827484
vt 0.15625 0.124183
vn 1 0 0
vn -1 0 0
vn 0 -1 0
vn 0 1 0
vn 0 0 1
vn 0 0 -1
usemtl material_0_0
f 1/1/1 2/2/1 3/3/1
f 3/3/2 2/2/2 1/1/2
f 4/4/3 2/5/3 1/6/3
f 1/6/4 2/5/4 4/4/4
f 2/2/1 5/7/1 3/3/1
f 3/3/2 5/7/2 2/2/2
f 6/8/5 1/9/5 3/10/5
f 3/10/6 1/9/6 6/8/6
f 2/5/3 4/4/3 7/11/3
f 7/11/4 4/4/4 2/5/4
f 1/9/5 6/8/5 4/12/5
f 4/12/6 6/8/6 1/9/6
f 8/13/1 5/7/1 2/2/1
f 2/2/2 5/7/2 8/13/2
f 5/14/4 6/15/4 3/16/4
f 3/16/3 6/15/3 5/14/3
f 7/12/5 9/17/5 2/9/5
f 2/9/6 9/17/6 7/12/6
f 8/13/1 10/18/1 5/7/1
f 5/7/2 10/18/2 8/13/2
f 8/13/1 2/2/1 9/19/1
f 9/19/2 2/2/2 8/13/2
f 6/15/4 5/14/4 11/20/4
f 11/20/3 5/14/3 6/15/3
f 9/17/5 7/12/5 12/21/5
f 12/21/6 7/12/6 9/17/6
f 10/18/1 8/13/1 13/22/1
f 13/22/2 8/13/2 10/18/2
f 10/23/5 11/8/5 5/10/5
f 5/10/6 11/8/6 10/23/6
f 8/13/1 9/19/1 14/24/1
f 14/24/2 9/19/2 8/13/2
f 15/25/4 9/14/4 12/20/4
f 12/20/3 9/14/3 15/25/3
f 8/26/6 16/27/6 13/28/6
f 13/28/5 16/27/5 8/26/5
f 13/29/4 17/20/4 10/14/4
f 10/14/3 17/20/3 13/29/3
f 11/8/5 10/23/5 17/30/5
f 17/30/6 10/23/6 11/8/6
f 9/14/4 15/25/4 14/31/4
f 14/31/3 15/25/3 9/14/3
f 8/13/1 14/24/1 18/32/1
f 18/32/2 14/24/2 8/13/2
f 16/27/6 8/26/6 19/33/6
f 19/33/5 8/26/5 16/27/5
f 17/20/4 13/29/4 16/34/4
f 16/34/3 13/29/3 17/20/3
f 15/21/5 18/35/5 14/17/5
f 14/17/6 18/35/6 15/21/6
f 20/36/3 8/37/3 18/38/3
f 18/38/4 8/37/4 20/36/4
f 8/37/3 20/36/3 19/39/3
f 19/39/4 20/36/4 8/37/4
f 18/35/5 15/21/5 20/40/5
f 20/40/6 15/21/6 18/35/6
