# SSTK version 0.8.0
# 25
mtllib original-25.mtl
o mesh171/mesh171-geometry#mesh171-geometry
v 0.017786 0.104662 0.117216
v 0.052722 0.104662 0.128367
v 0.052722 0.104662 0.132129
v 0.041592 0.104662 0.123765
v 0.038846 0.104662 0.122696
v 0.021260 0.104662 0.115440
v 0.041592 0.104662 0.106656
v 0.017786 0.104662 0.113588
v 0.038846 0.104662 0.107840
v 0.052722 0.104662 0.097967
v 0.052722 0.104662 0.101882
vt -0.08185 0.016693
vt -0.076861 0.000282
vt -0.075178 0.000282
vt -0.078919 0.00551
vt -0.079398 0.0068
vt -0.082644 0.015061
vt -0.086574 0.00551
vt -0.083473 0.016693
vt -0.086044 0.0068
vt -0.090461 0.000282
vt -0.08871 0.000282
vn 0 -1 0
vn 0 1 0
usemtl material_0_0
f 1/1/1 2/2/1 3/3/1
f 2/2/1 1/1/1 4/4/1
f 3/3/2 2/2/2 1/1/2
f 4/4/2 1/1/2 2/2/2
f 4/4/1 1/1/1 5/5/1
f 5/5/2 1/1/2 4/4/2
f 5/5/1 1/1/1 6/6/1
f 6/6/2 1/1/2 5/5/2
f 5/5/1 7/7/1 4/4/1
f 4/4/2 7/7/2 5/5/2
f 6/6/1 1/1/1 8/8/1
f 8/8/2 1/1/2 6/6/2
f 7/7/1 5/5/1 9/9/1
f 9/9/2 5/5/2 7/7/2
f 6/6/1 8/8/1 9/9/1
f 9/9/2 8/8/2 6/6/2
f 9/9/1 10/10/1 7/7/1
f 7/7/2 10/10/2 9/9/2
f 9/9/1 8/8/1 10/10/1
f 10/10/2 8/8/2 9/9/2
f 7/7/1 10/10/1 11/11/1
f 11/11/2 10/10/2 7/7/2
