# SSTK version 0.8.0
# 43
mtllib original-43.mtl
o mesh201/mesh201-geometry#mesh201-geometry
v 0.116912 0.116645 0.554862
v 0.116912 0.162488 0.556957
v 0.116912 0.116645 0.556957
v 0.116912 0.162488 0.554862
v 0.119877 0.116645 0.556957
v 0.119877 0.116645 0.554862
v 0.119877 0.162488 0.554862
v 0.119877 0.162488 0.556957
vt 0.093987 0.831195
vt 0.124183 0.832509
vt 0.093987 0.832509
vt 0.124183 0.831195
vt -0.154297 0.124183
vt -0.15625 0.093987
vt -0.154297 0.093987
vt -0.154297 0.832509
vt -0.15625 0.831195
vt -0.154297 0.831195
vt 0.15625 0.093987
vt 0.154297 0.124183
vt 0.154297 0.093987
vt 0.15625 0.831195
vt 0.154297 0.832509
vt 0.154297 0.831195
vt -0.15625 0.124183
vt -0.15625 0.832509
vt 0.15625 0.124183
vt 0.15625 0.832509
vn 1 0 0
vn -1 0 0
vn 0 0 -1
vn 0 0 1
vn 0 1 0
vn 0 -1 0
usemtl material_0_0
f 1/1/1 2/2/1 3/3/1
f 2/2/1 1/1/1 4/4/1
f 3/3/2 2/2/2 1/1/2
f 4/4/2 1/1/2 2/2/2
f 2/5/3 5/6/3 3/7/3
f 3/7/4 5/6/4 2/5/4
f 3/8/5 6/9/5 1/10/5
f 1/10/6 6/9/6 3/8/6
f 6/11/4 4/12/4 1/13/4
f 1/13/3 4/12/3 6/11/3
f 7/14/6 2/15/6 4/16/6
f 4/16/5 2/15/5 7/14/5
f 5/6/3 2/5/3 8/17/3
f 8/17/4 2/5/4 5/6/4
f 6/9/5 3/8/5 5/18/5
f 5/18/6 3/8/6 6/9/6
f 4/12/4 6/11/4 7/19/4
f 7/19/3 6/11/3 4/12/3
f 2/15/6 7/14/6 8/20/6
f 8/20/5 7/14/5 2/15/5
