# SSTK version 0.8.0
# 17
mtllib original-17.mtl
o mesh163/mesh163-geometry#mesh163-geometry
v -0.046530 0.104662 0.019465
v -0.011594 0.104662 0.030618
v -0.011594 0.104662 0.034379
v -0.022724 0.104662 0.026015
v -0.025470 0.104662 0.024946
v -0.043056 0.104662 0.017689
v -0.022724 0.104662 0.008905
v -0.046530 0.104662 0.015838
v -0.025470 0.104662 0.010090
v -0.011594 0.104662 0.000217
v -0.011594 0.104662 0.004132
vt -0.125581 0.046905
vt -0.120592 0.030494
vt -0.118909 0.030494
vt -0.122651 0.035722
vt -0.123129 0.037012
vt -0.126375 0.045273
vt -0.130305 0.035722
vt -0.127204 0.046905
vt -0.129775 0.037012
vt -0.134192 0.030494
vt -0.132441 0.030494
vn 0 -1 0
vn 0 1 0
usemtl material_0_0
f 1/1/1 2/2/1 3/3/1
f 2/2/1 1/1/1 4/4/1
f 3/3/2 2/2/2 1/1/2
f 4/4/2 1/1/2 2/2/2
f 4/4/1 1/1/1 5/5/1
f 5/5/2 1/1/2 4/4/2
f 5/5/1 1/1/1 6/6/1
f 6/6/2 1/1/2 5/5/2
f 5/5/1 7/7/1 4/4/1
f 4/4/2 7/7/2 5/5/2
f 6/6/1 1/1/1 8/8/1
f 8/8/2 1/1/2 6/6/2
f 7/7/1 5/5/1 9/9/1
f 9/9/2 5/5/2 7/7/2
f 6/6/1 8/8/1 9/9/1
f 9/9/2 8/8/2 6/6/2
f 9/9/1 10/10/1 7/7/1
f 7/7/2 10/10/2 9/9/2
f 9/9/1 8/8/1 10/10/1
f 10/10/2 8/8/2 9/9/2
f 7/7/1 10/10/1 11/11/1
f 11/11/2 10/10/2 7/7/2
