# SSTK version 0.8.0
# 41
mtllib original-41.mtl
o mesh199/mesh199-geometry#mesh199-geometry
v 0.116912 0.123579 0.584069
v 0.116912 0.123579 0.611112
v 0.116912 0.121546 0.584069
v 0.119877 0.123579 0.584069
v 0.116912 0.121546 0.613247
v 0.119877 0.121546 0.584069
v 0.119877 0.123579 0.611112
v 0.116912 0.168989 0.613247
v 0.116912 0.171022 0.611112
v 0.119877 0.121546 0.613247
v 0.119877 0.171022 0.611112
v 0.116912 0.171022 0.623566
v 0.119877 0.168989 0.613247
v 0.116912 0.168989 0.626646
v 0.119877 0.171022 0.623566
v 0.116912 0.224256 0.604885
v 0.119877 0.168989 0.626646
v 0.119877 0.218465 0.604885
v 0.116912 0.218465 0.604885
v 0.119877 0.224256 0.604885
v 0.116912 0.171022 0.586204
v 0.116912 0.168989 0.583123
v 0.119877 0.168989 0.583123
v 0.119877 0.171022 0.586204
v 0.116912 0.171022 0.598658
v 0.116912 0.168989 0.596523
v 0.119877 0.168989 0.596523
v 0.119877 0.171022 0.598658
v 0.116912 0.149334 0.596523
v 0.119877 0.149334 0.596523
v 0.119877 0.147301 0.598658
v 0.116912 0.147301 0.598658
v 0.116912 0.147301 0.584069
v 0.119877 0.149334 0.584069
v 0.119877 0.147301 0.584069
v 0.116912 0.149334 0.584069
vt 0.098554 0.849517
vt 0.098554 0.866482
vt 0.097215 0.849517
vt 0.15625 0.849517
vt 0.154297 0.866482
vt 0.154297 0.849517
vt 0.097215 0.867821
vt 0.15625 0.097215
vt 0.154297 0.098554
vt 0.154297 0.097215
vt 0.15625 0.866482
vt 0.15625 0.098554
vt 0.128465 0.867821
vt -0.154297 0.867821
vt -0.15625 0.849517
vt -0.154297 0.849517
vt 0.154297 0.129804
vt 0.129804 0.866482
vt -0.154297 0.128465
vt -0.15625 0.097215
vt -0.154297 0.097215
vt -0.15625 0.867821
vt 0.15625 0.129804
vt 0.129804 0.874294
vt -0.15625 0.128465
vt 0.154297 0.874294
vt 0.128465 0.876227
vt -0.154297 0.876227
vt 0.15625 0.874294
vt 0.164868 0.862575
vt -0.15625 0.876227
vt -0.15625 0.152071
vt -0.154297 0.185446
vt -0.15625 0.185446
vt 0.161054 0.862575
vt 0.15625 0.148499
vt 0.154297 0.187379
vt 0.154297 0.148499
vt 0.15625 0.187379
vt -0.154297 0.152071
vt 0.129804 0.850857
vt 0.154297 0.418362
vt 0.15625 0.457242
vt 0.154297 0.457242
vt -0.15625 0.45367
vt -0.154297 0.420295
vt -0.154297 0.45367
vt 0.128465 0.848924
vt 0.15625 0.418362
vt -0.15625 0.420295
vt 0.129804 0.858669
vt -0.154297 0.85733
vt -0.15625 0.848924
vt -0.154297 0.848924
vt 0.15625 0.850857
vt 0.154297 0.858669
vt 0.154297 0.850857
vt 0.128465 0.85733
vt -0.15625 0.85733
vt 0.15625 0.858669
vt 0.115518 0.85733
vt 0.154297 0.128465
vt 0.15625 0.115518
vt 0.15625 0.128465
vt -0.15625 0.114179
vt -0.154297 0.129804
vt -0.15625 0.129804
vt 0.114179 0.858669
vt 0.154297 0.115518
vt -0.154297 0.114179
vt 0.114179 0.849517
vt 0.154297 0.85733
vt 0.15625 0.85733
vt -0.154297 0.858669
vt -0.15625 0.858669
vt 0.115518 0.849517
vt 0.154297 0.114179
vt 0.15625 0.114179
vn 1 0 0
vn -1 0 0
vn 0 -1 0
vn 0 1 0
vn 0 0 1
vn 0 0 -1
vn 0 0.3363360169076118 0.9417420473413739
vn 0 -0.3363360169076118 -0.9417420473413739
vn 0 -0.3363360169076122 0.9417420473413737
vn 0 0.3363360169076122 -0.9417420473413737
usemtl material_0_0
f 1/1/1 2/2/1 3/3/1
f 3/3/2 2/2/2 1/1/2
f 4/4/3 2/5/3 1/6/3
f 1/6/4 2/5/4 4/4/4
f 2/2/1 5/7/1 3/3/1
f 3/3/2 5/7/2 2/2/2
f 6/8/5 1/9/5 3/10/5
f 3/10/6 1/9/6 6/8/6
f 2/5/3 4/4/3 7/11/3
f 7/11/4 4/4/4 2/5/4
f 1/9/5 6/8/5 4/12/5
f 4/12/6 6/8/6 1/9/6
f 5/7/1 2/2/1 8/13/1
f 8/13/2 2/2/2 5/7/2
f 5/14/4 6/15/4 3/16/4
f 3/16/3 6/15/3 5/14/3
f 7/12/5 9/17/5 2/9/5
f 2/9/6 9/17/6 7/12/6
f 8/13/1 2/2/1 9/18/1
f 9/18/2 2/2/2 8/13/2
f 8/19/6 10/20/6 5/21/6
f 5/21/5 10/20/5 8/19/5
f 6/15/4 5/14/4 10/22/4
f 10/22/3 5/14/3 6/15/3
f 9/17/5 7/12/5 11/23/5
f 11/23/6 7/12/6 9/17/6
f 8/13/1 9/18/1 12/24/1
f 12/24/2 9/18/2 8/13/2
f 10/20/6 8/19/6 13/25/6
f 13/25/5 8/19/5 10/20/5
f 11/11/3 12/26/3 9/5/3
f 9/5/4 12/26/4 11/11/4
f 12/24/1 14/27/1 8/13/1
f 8/13/2 14/27/2 12/24/2
f 14/28/4 13/22/4 8/14/4
f 8/14/3 13/22/3 14/28/3
f 12/26/3 11/11/3 15/29/3
f 15/29/4 11/11/4 12/26/4
f 14/27/1 12/24/1 16/30/1
f 16/30/2 12/24/2 14/27/2
f 13/22/4 14/28/4 17/31/4
f 17/31/3 14/28/3 13/22/3
f 18/32/7 12/33/7 15/34/7
f 15/34/8 12/33/8 18/32/8
f 16/30/1 12/24/1 19/35/1
f 19/35/2 12/24/2 16/30/2
f 20/36/8 14/37/8 16/38/8
f 16/38/7 14/37/7 20/36/7
f 14/37/8 20/36/8 17/39/8
f 17/39/7 20/36/7 14/37/7
f 12/33/7 18/32/7 19/40/7
f 19/40/8 18/32/8 12/33/8
f 21/41/1 16/30/1 19/35/1
f 19/35/2 16/30/2 21/41/2
f 22/42/9 20/43/9 16/44/9
f 16/44/10 20/43/10 22/42/10
f 18/45/10 21/46/10 19/47/10
f 19/47/9 21/46/9 18/45/9
f 21/41/1 22/48/1 16/30/1
f 16/30/2 22/48/2 21/41/2
f 20/43/9 22/42/9 23/49/9
f 23/49/10 22/42/10 20/43/10
f 21/46/10 18/45/10 24/50/10
f 24/50/9 18/45/9 21/46/9
f 25/51/1 22/48/1 21/41/1
f 21/41/2 22/48/2 25/51/2
f 26/52/4 23/53/4 22/54/4
f 22/54/3 23/53/3 26/52/3
f 24/55/3 25/56/3 21/57/3
f 21/57/4 25/56/4 24/55/4
f 25/51/1 26/58/1 22/48/1
f 22/48/2 26/58/2 25/51/2
f 23/53/4 26/52/4 27/59/4
f 27/59/3 26/52/3 23/53/3
f 25/56/3 24/55/3 28/60/3
f 28/60/4 24/55/4 25/56/4
f 25/51/1 29/61/1 26/58/1
f 26/58/2 29/61/2 25/51/2
f 26/62/5 30/63/5 27/64/5
f 27/64/6 30/63/6 26/62/6
f 31/65/6 25/66/6 28/67/6
f 28/67/5 25/66/5 31/65/5
f 32/68/1 29/61/1 25/51/1
f 25/51/2 29/61/2 32/68/2
f 30/63/5 26/62/5 29/69/5
f 29/69/6 26/62/6 30/63/6
f 25/66/6 31/65/6 32/70/6
f 32/70/5 31/65/5 25/66/5
f 29/61/1 32/68/1 33/71/1
f 33/71/2 32/68/2 29/61/2
f 29/72/3 34/4/3 30/73/3
f 30/73/4 34/4/4 29/72/4
f 35/15/4 32/74/4 31/75/4
f 31/75/3 32/74/3 35/15/3
f 32/74/4 35/15/4 33/16/4
f 33/16/3 35/15/3 32/74/3
f 36/76/1 29/61/1 33/71/1
f 33/71/2 29/61/2 36/76/2
f 34/4/3 29/72/3 36/6/3
f 36/6/4 29/72/4 34/4/4
f 34/63/5 33/77/5 35/78/5
f 35/78/6 33/77/6 34/63/6
f 33/77/5 34/63/5 36/69/5
f 36/69/6 34/63/6 33/77/6
