# SSTK version 0.8.0
# 15
mtllib original-15.mtl
o mesh161/mesh161-geometry#mesh161-geometry
v -0.042174 0.104662 0.115154
v -0.029053 0.104662 0.116089
v -0.039496 0.104662 0.117150
v -0.035245 0.104662 0.115201
v -0.015826 0.104662 0.115036
v -0.037857 0.104662 0.114091
v -0.019414 0.104662 0.117578
v -0.022897 0.104662 0.115187
v -0.044342 0.104662 0.112661
v -0.036416 0.104662 0.118576
v -0.020289 0.104662 0.114059
v -0.040146 0.104662 0.112537
v -0.023852 0.104662 0.119183
v -0.013176 0.104662 0.111687
v -0.045891 0.104662 0.109749
v -0.032935 0.104662 0.119432
v -0.017995 0.104662 0.112480
v -0.042008 0.104662 0.110588
v -0.029053 0.104662 0.119717
v -0.016126 0.104662 0.110513
v -0.043338 0.104662 0.108293
v -0.011539 0.104662 0.107556
v -0.046820 0.104662 0.106417
v -0.014790 0.104662 0.108222
v -0.044136 0.104662 0.105652
v -0.013989 0.104662 0.105606
v -0.047129 0.104662 0.102665
v -0.010994 0.104662 0.102665
v -0.044402 0.104662 0.102665
v -0.013722 0.104662 0.102665
v -0.046575 0.104662 0.097710
v -0.014188 0.104662 0.098851
v -0.044137 0.104662 0.099692
v -0.011302 0.104662 0.098880
v -0.043342 0.104662 0.097055
v -0.012228 0.104662 0.095528
v -0.044911 0.104662 0.093537
v -0.015585 0.104662 0.095619
v -0.042018 0.104662 0.094756
v -0.017854 0.104662 0.092979
v -0.040165 0.104662 0.092793
v -0.013771 0.104662 0.092608
v -0.042235 0.104662 0.090179
v -0.020932 0.104662 0.090940
v -0.037881 0.104662 0.091222
v -0.015931 0.104662 0.090119
v -0.035268 0.104662 0.090100
v -0.024704 0.104662 0.089637
v -0.038646 0.104662 0.087665
v -0.018603 0.104662 0.088131
v -0.029053 0.104662 0.089202
v -0.021680 0.104662 0.086711
v -0.034224 0.104662 0.086097
v -0.025163 0.104662 0.085858
v -0.029053 0.104662 0.085575
vt -0.082772 0.044859
vt -0.082354 0.038695
vt -0.081879 0.043601
vt -0.082751 0.041604
vt -0.082825 0.032482
vt -0.083248 0.042831
vt -0.081687 0.034167
vt -0.082757 0.035803
vt -0.083887 0.045877
vt -0.081241 0.042154
vt -0.083262 0.034579
vt -0.083943 0.043906
vt -0.08097 0.036252
vt -0.084323 0.031237
vt -0.08519 0.046605
vt -0.080858 0.040519
vt -0.083968 0.033501
vt -0.084815 0.044781
vt -0.080731 0.038695
vt -0.084848 0.032623
vt -0.085841 0.045406
vt -0.086171 0.030468
vt -0.086681 0.047041
vt -0.085873 0.031995
vt -0.087023 0.04578
vt -0.087044 0.031619
vt -0.088359 0.047187
vt -0.088359 0.030212
vt -0.088359 0.045905
vt -0.088359 0.031493
vt -0.090576 0.046926
vt -0.090066 0.031712
vt -0.089689 0.045781
vt -0.090053 0.030357
vt -0.090869 0.045408
vt -0.091552 0.030792
vt -0.092443 0.046145
vt -0.091512 0.032369
vt -0.091898 0.044786
vt -0.092693 0.033435
vt -0.092776 0.043915
vt -0.092859 0.031517
vt -0.093945 0.044888
vt -0.093605 0.034881
vt -0.093479 0.042842
vt -0.093972 0.032531
vt -0.093981 0.041615
vt -0.094188 0.036652
vt -0.09507 0.043202
vt -0.094862 0.033786
vt -0.094382 0.038695
vt -0.095497 0.035232
vt -0.095771 0.041125
vt -0.095878 0.036868
vt -0.096005 0.038695
vn 0 -1 0
vn 0 1 0
usemtl material_0_0
f 1/1/1 2/2/1 3/3/1
f 2/2/1 1/1/1 4/4/1
f 3/3/2 2/2/2 1/1/2
f 4/4/2 1/1/2 2/2/2
f 5/5/1 3/3/1 2/2/1
f 2/2/2 3/3/2 5/5/2
f 4/4/1 1/1/1 6/6/1
f 6/6/2 1/1/2 4/4/2
f 7/7/1 3/3/1 5/5/1
f 5/5/2 3/3/2 7/7/2
f 5/5/1 2/2/1 8/8/1
f 8/8/2 2/2/2 5/5/2
f 6/6/1 1/1/1 9/9/1
f 9/9/2 1/1/2 6/6/2
f 7/7/1 10/10/1 3/3/1
f 3/3/2 10/10/2 7/7/2
f 5/5/1 8/8/1 11/11/1
f 11/11/2 8/8/2 5/5/2
f 6/6/1 9/9/1 12/12/1
f 12/12/2 9/9/2 6/6/2
f 13/13/1 10/10/1 7/7/1
f 7/7/2 10/10/2 13/13/2
f 5/5/1 11/11/1 14/14/1
f 14/14/2 11/11/2 5/5/2
f 12/12/1 9/9/1 15/15/1
f 15/15/2 9/9/2 12/12/2
f 13/13/1 16/16/1 10/10/1
f 10/10/2 16/16/2 13/13/2
f 14/14/1 11/11/1 17/17/1
f 17/17/2 11/11/2 14/14/2
f 12/12/1 15/15/1 18/18/1
f 18/18/2 15/15/2 12/12/2
f 16/16/1 13/13/1 19/19/1
f 19/19/2 13/13/2 16/16/2
f 14/14/1 17/17/1 20/20/1
f 20/20/2 17/17/2 14/14/2
f 18/18/1 15/15/1 21/21/1
f 21/21/2 15/15/2 18/18/2
f 14/14/1 20/20/1 22/22/1
f 22/22/2 20/20/2 14/14/2
f 21/21/1 15/15/1 23/23/1
f 23/23/2 15/15/2 21/21/2
f 22/22/1 20/20/1 24/24/1
f 24/24/2 20/20/2 22/22/2
f 21/21/1 23/23/1 25/25/1
f 25/25/2 23/23/2 21/21/2
f 22/22/1 24/24/1 26/26/1
f 26/26/2 24/24/2 22/22/2
f 25/25/1 23/23/1 27/27/1
f 27/27/2 23/23/2 25/25/2
f 22/22/1 26/26/1 28/28/1
f 28/28/2 26/26/2 22/22/2
f 25/25/1 27/27/1 29/29/1
f 29/29/2 27/27/2 25/25/2
f 28/28/1 26/26/1 30/30/1
f 30/30/2 26/26/2 28/28/2
f 29/29/1 27/27/1 31/31/1
f 31/31/2 27/27/2 29/29/2
f 28/28/1 30/30/1 32/32/1
f 32/32/2 30/30/2 28/28/2
f 29/29/1 31/31/1 33/33/1
f 33/33/2 31/31/2 29/29/2
f 28/28/1 32/32/1 34/34/1
f 34/34/2 32/32/2 28/28/2
f 33/33/1 31/31/1 35/35/1
f 35/35/2 31/31/2 33/33/2
f 34/34/1 32/32/1 36/36/1
f 36/36/2 32/32/2 34/34/2
f 35/35/1 31/31/1 37/37/1
f 37/37/2 31/31/2 35/35/2
f 36/36/1 32/32/1 38/38/1
f 38/38/2 32/32/2 36/36/2
f 35/35/1 37/37/1 39/39/1
f 39/39/2 37/37/2 35/35/2
f 36/36/1 38/38/1 40/40/1
f 40/40/2 38/38/2 36/36/2
f 39/39/1 37/37/1 41/41/1
f 41/41/2 37/37/2 39/39/2
f 36/36/1 40/40/1 42/42/1
f 42/42/2 40/40/2 36/36/2
f 41/41/1 37/37/1 43/43/1
f 43/43/2 37/37/2 41/41/2
f 42/42/1 40/40/1 44/44/1
f 44/44/2 40/40/2 42/42/2
f 41/41/1 43/43/1 45/45/1
f 45/45/2 43/43/2 41/41/2
f 42/42/1 44/44/1 46/46/1
f 46/46/2 44/44/2 42/42/2
f 45/45/1 43/43/1 47/47/1
f 47/47/2 43/43/2 45/45/2
f 46/46/1 44/44/1 48/48/1
f 48/48/2 44/44/2 46/46/2
f 47/47/1 43/43/1 49/49/1
f 49/49/2 43/43/2 47/47/2
f 46/46/1 48/48/1 50/50/1
f 50/50/2 48/48/2 46/46/2
f 47/47/1 49/49/1 51/51/1
f 51/51/2 49/49/2 47/47/2
f 50/50/1 48/48/1 51/51/1
f 51/51/2 48/48/2 50/50/2
f 51/51/1 49/49/1 50/50/1
f 50/50/2 49/49/2 51/51/2
f 50/50/1 49/49/1 52/52/1
f 52/52/2 49/49/2 50/50/2
f 52/52/1 49/49/1 53/53/1
f 53/53/2 49/49/2 52/52/2
f 52/52/1 53/53/1 54/54/1
f 54/54/2 53/53/2 52/52/2
f 54/54/1 53/53/1 55/55/1
f 55/55/2 53/53/2 54/54/2
