# SSTK version 0.8.0
# 26
mtllib original-26.mtl
o mesh172/mesh172-geometry#mesh172-geometry
v 0.017786 0.104662 0.093441
v 0.020714 0.104662 0.089947
v 0.052722 0.104662 0.093441
v 0.017786 0.104662 0.078013
v 0.033808 0.104662 0.089947
v 0.020714 0.104662 0.080113
v 0.052722 0.104662 0.089947
v 0.021096 0.104662 0.075654
v 0.036664 0.104662 0.089947
v 0.018066 0.104662 0.074759
v 0.033808 0.104662 0.080285
v 0.022423 0.104662 0.072713
v 0.036664 0.104662 0.084658
v 0.018905 0.104662 0.072026
v 0.037382 0.104662 0.080715
v 0.024533 0.104662 0.071071
v 0.039428 0.104662 0.077611
v 0.020260 0.104662 0.069842
v 0.036427 0.104662 0.077554
v 0.027134 0.104662 0.070565
v 0.033391 0.104662 0.076033
v 0.045338 0.104662 0.073220
v 0.033603 0.104662 0.069577
v 0.035476 0.104662 0.072901
v 0.038887 0.104662 0.073917
v 0.030054 0.104662 0.071173
v 0.022087 0.104662 0.068236
v 0.032140 0.104662 0.072995
v 0.042446 0.104662 0.070832
v 0.030811 0.104662 0.067583
v 0.052722 0.104662 0.068274
v 0.024372 0.104662 0.067247
v 0.052722 0.104662 0.063843
v 0.027097 0.104662 0.066918
vt -0.092486 0.016693
vt -0.094049 0.015317
vt -0.092486 0.000282
vt -0.099388 0.016693
vt -0.094049 0.009167
vt -0.098449 0.015317
vt -0.094049 0.000282
vt -0.100443 0.015138
vt -0.094049 0.007825
vt -0.100844 0.016562
vt -0.098372 0.009167
vt -0.101759 0.014514
vt -0.096415 0.007825
vt -0.102067 0.016167
vt -0.09818 0.007488
vt -0.102494 0.013523
vt -0.099568 0.006527
vt -0.103044 0.015531
vt -0.099593 0.007936
vt -0.10272 0.012302
vt -0.100274 0.009363
vt -0.101533 0.00375
vt -0.103162 0.009263
vt -0.101675 0.008383
vt -0.101221 0.006781
vt -0.102448 0.01093
vt -0.103762 0.014672
vt -0.101633 0.00995
vt -0.1026 0.005109
vt -0.104054 0.010575
vt -0.103745 0.000282
vt -0.104204 0.013599
vt -0.105727 0.000282
vt -0.104352 0.012319
vn 0 -1 0
vn 0 1 0
usemtl material_0_0
f 1/1/1 2/2/1 3/3/1
f 2/2/1 1/1/1 4/4/1
f 3/3/2 2/2/2 1/1/2
f 4/4/2 1/1/2 2/2/2
f 3/3/1 2/2/1 5/5/1
f 5/5/2 2/2/2 3/3/2
f 2/2/1 4/4/1 6/6/1
f 6/6/2 4/4/2 2/2/2
f 5/5/1 7/7/1 3/3/1
f 3/3/2 7/7/2 5/5/2
f 6/6/1 4/4/1 8/8/1
f 8/8/2 4/4/2 6/6/2
f 7/7/1 5/5/1 9/9/1
f 9/9/2 5/5/2 7/7/2
f 8/8/1 4/4/1 10/10/1
f 10/10/2 4/4/2 8/8/2
f 9/9/1 5/5/1 11/11/1
f 11/11/2 5/5/2 9/9/2
f 8/8/1 10/10/1 12/12/1
f 12/12/2 10/10/2 8/8/2
f 9/9/1 11/11/1 13/13/1
f 13/13/2 11/11/2 9/9/2
f 12/12/1 10/10/1 14/14/1
f 14/14/2 10/10/2 12/12/2
f 13/13/1 11/11/1 15/15/1
f 15/15/2 11/11/2 13/13/2
f 12/12/1 14/14/1 16/16/1
f 16/16/2 14/14/2 12/12/2
f 15/15/1 11/11/1 17/17/1
f 17/17/2 11/11/2 15/15/2
f 16/16/1 14/14/1 18/18/1
f 18/18/2 14/14/2 16/16/2
f 17/17/1 11/11/1 19/19/1
f 19/19/2 11/11/2 17/17/2
f 16/16/1 18/18/1 20/20/1
f 20/20/2 18/18/2 16/16/2
f 19/19/1 11/11/1 21/21/1
f 21/21/2 11/11/2 19/19/2
f 19/19/1 22/22/1 17/17/1
f 17/17/2 22/22/2 19/19/2
f 23/23/1 20/20/1 18/18/1
f 18/18/2 20/20/2 23/23/2
f 19/19/1 21/21/1 24/24/1
f 24/24/2 21/21/2 19/19/2
f 22/22/1 19/19/1 25/25/1
f 25/25/2 19/19/2 22/22/2
f 23/23/1 26/26/1 20/20/1
f 20/20/2 26/26/2 23/23/2
f 23/23/1 18/18/1 27/27/1
f 27/27/2 18/18/2 23/23/2
f 24/24/1 21/21/1 28/28/1
f 28/28/2 21/21/2 24/24/2
f 22/22/1 25/25/1 29/29/1
f 29/29/2 25/25/2 22/22/2
f 24/24/1 26/26/1 23/23/1
f 23/23/2 26/26/2 24/24/2
f 23/23/1 27/27/1 30/30/1
f 30/30/2 27/27/2 23/23/2
f 24/24/1 28/28/1 26/26/1
f 26/26/2 28/28/2 24/24/2
f 22/22/1 29/29/1 31/31/1
f 31/31/2 29/29/2 22/22/2
f 30/30/1 27/27/1 32/32/1
f 32/32/2 27/27/2 30/30/2
f 31/31/1 29/29/1 33/33/1
f 33/33/2 29/29/2 31/31/2
f 30/30/1 32/32/1 34/34/1
f 34/34/2 32/32/2 30/30/2
