# SSTK version 0.8.0
# 24
mtllib original-24.mtl
o mesh170/mesh170-geometry#mesh170-geometry
v 0.017786 0.104662 0.164687
v 0.020714 0.104662 0.161212
v 0.052722 0.104662 0.164687
v 0.017786 0.104662 0.150595
v 0.049794 0.104662 0.161212
v 0.020714 0.104662 0.152581
v 0.052722 0.104662 0.150595
v 0.021595 0.104662 0.146515
v 0.049794 0.104662 0.152581
v 0.018379 0.104662 0.145747
v 0.049303 0.104662 0.147167
v 0.022696 0.104662 0.144132
v 0.052432 0.104662 0.147123
v 0.020159 0.104662 0.141782
v 0.048484 0.104662 0.144971
v 0.024238 0.104662 0.142183
v 0.051560 0.104662 0.144061
v 0.026220 0.104662 0.140667
v 0.047011 0.104662 0.142871
v 0.022931 0.104662 0.138743
v 0.050108 0.104662 0.141409
v 0.028642 0.104662 0.139584
v 0.044904 0.104662 0.141068
v 0.034808 0.104662 0.138717
v 0.048075 0.104662 0.139166
v 0.026497 0.104662 0.136674
v 0.042183 0.104662 0.139768
v 0.045518 0.104662 0.137383
v 0.038825 0.104662 0.138980
v 0.042494 0.104662 0.136108
v 0.030617 0.104662 0.135485
v 0.039003 0.104662 0.135344
v 0.035045 0.104662 0.135089
vt -0.060612 0.016693
vt -0.062167 0.015317
vt -0.060612 0.000282
vt -0.066917 0.016693
vt -0.062167 0.001657
vt -0.066028 0.015317
vt -0.066917 0.000282
vt -0.068742 0.014904
vt -0.066028 0.001657
vt -0.069086 0.016414
vt -0.06845 0.001888
vt -0.069808 0.014386
vt -0.06847 0.000418
vt -0.070859 0.015578
vt -0.069433 0.002272
vt -0.07068 0.013662
vt -0.069839 0.000828
vt -0.071358 0.012731
vt -0.070372 0.002964
vt -0.072219 0.014276
vt -0.071026 0.00151
vt -0.071843 0.011593
vt -0.071179 0.003954
vt -0.07223 0.008697
vt -0.07203 0.002465
vt -0.073144 0.012601
vt -0.071761 0.005233
vt -0.072828 0.003666
vt -0.072113 0.00681
vt -0.073398 0.005086
vt -0.073676 0.010666
vt -0.07374 0.006726
vt -0.073854 0.008586
vn 0 -1 0
vn 0 1 0
usemtl material_0_0
f 1/1/1 2/2/1 3/3/1
f 2/2/1 1/1/1 4/4/1
f 3/3/2 2/2/2 1/1/2
f 4/4/2 1/1/2 2/2/2
f 5/5/1 3/3/1 2/2/1
f 2/2/2 3/3/2 5/5/2
f 2/2/1 4/4/1 6/6/1
f 6/6/2 4/4/2 2/2/2
f 3/3/1 5/5/1 7/7/1
f 7/7/2 5/5/2 3/3/2
f 6/6/1 4/4/1 8/8/1
f 8/8/2 4/4/2 6/6/2
f 7/7/1 5/5/1 9/9/1
f 9/9/2 5/5/2 7/7/2
f 8/8/1 4/4/1 10/10/1
f 10/10/2 4/4/2 8/8/2
f 7/7/1 9/9/1 11/11/1
f 11/11/2 9/9/2 7/7/2
f 8/8/1 10/10/1 12/12/1
f 12/12/2 10/10/2 8/8/2
f 7/7/1 11/11/1 13/13/1
f 13/13/2 11/11/2 7/7/2
f 12/12/1 10/10/1 14/14/1
f 14/14/2 10/10/2 12/12/2
f 13/13/1 11/11/1 15/15/1
f 15/15/2 11/11/2 13/13/2
f 12/12/1 14/14/1 16/16/1
f 16/16/2 14/14/2 12/12/2
f 13/13/1 15/15/1 17/17/1
f 17/17/2 15/15/2 13/13/2
f 16/16/1 14/14/1 18/18/1
f 18/18/2 14/14/2 16/16/2
f 17/17/1 15/15/1 19/19/1
f 19/19/2 15/15/2 17/17/2
f 18/18/1 14/14/1 20/20/1
f 20/20/2 14/14/2 18/18/2
f 17/17/1 19/19/1 21/21/1
f 21/21/2 19/19/2 17/17/2
f 18/18/1 20/20/1 22/22/1
f 22/22/2 20/20/2 18/18/2
f 21/21/1 19/19/1 23/23/1
f 23/23/2 19/19/2 21/21/2
f 22/22/1 20/20/1 24/24/1
f 24/24/2 20/20/2 22/22/2
f 21/21/1 23/23/1 25/25/1
f 25/25/2 23/23/2 21/21/2
f 24/24/1 20/20/1 26/26/1
f 26/26/2 20/20/2 24/24/2
f 25/25/1 23/23/1 27/27/1
f 27/27/2 23/23/2 25/25/2
f 24/24/1 26/26/1 28/28/1
f 28/28/2 26/26/2 24/24/2
f 25/25/1 27/27/1 29/29/1
f 29/29/2 27/27/2 25/25/2
f 28/28/1 26/26/1 30/30/1
f 30/30/2 26/26/2 28/28/2
f 28/28/1 29/29/1 24/24/1
f 24/24/2 29/29/2 28/28/2
f 25/25/1 29/29/1 28/28/1
f 28/28/2 29/29/2 25/25/2
f 30/30/1 26/26/1 31/31/1
f 31/31/2 26/26/2 30/30/2
f 30/30/1 31/31/1 32/32/1
f 32/32/2 31/31/2 30/30/2
f 32/32/1 31/31/1 33/33/1
f 33/33/2 31/31/2 32/32/2
