# SSTK version 0.8.0
# 32
mtllib original-32.mtl
o _7086_87_BC_b1/_7086_87_BC_b/mesh19/mesh19-geometry#mesh19-geometry
v 0.750927 -0.344428 0.257940
v 0.750927 -0.351980 0.257940
v 0.749915 -0.348204 0.257940
v 0.753691 -0.341663 0.257940
v 0.749915 -0.348204 0.297909
v 0.750927 -0.344428 0.296898
v 0.753691 -0.354745 0.257940
v 0.750927 -0.351980 0.296898
v 0.752884 -0.342471 0.294940
v 0.757467 -0.340652 0.257940
v 0.753691 -0.354745 0.294724
v 0.752884 -0.353938 0.294940
v 0.753691 -0.341663 0.294724
v 0.757467 -0.355757 0.257940
v 0.757467 -0.355757 0.293712
v 0.757467 -0.340652 0.293712
v 0.761244 -0.341663 0.257940
v 0.761244 -0.354745 0.257940
v 0.761244 -0.341663 0.294724
v 0.764008 -0.344428 0.257940
v 0.761244 -0.354745 0.294724
v 0.762051 -0.342471 0.294940
v 0.764008 -0.344428 0.296898
v 0.764008 -0.351980 0.257940
v 0.762051 -0.353938 0.294940
v 0.765020 -0.348204 0.297909
v 0.765020 -0.348204 0.257940
v 0.764008 -0.351980 0.296898
vt 0.001999 -0.003463
vt -0.001999 -0.003463
vt 0 -0.003999
vt 0.003463 -0.001999
vt -0.003463 -0.001999
vt 0.003999 0
vt -0.003999 0
vt 0.003463 0.001999
vt -0.003463 0.001999
vt 0.001999 0.003463
vt -0.001999 0.003463
vt 0 0.003999
vt 0 -0.001035
vt -0.021161 -0.001035
vt 0 0.001035
vt 0.020626 0.001035
vt 0.020626 -0.001035
vt -0.020626 0.001035
vt 0.021161 -0.001035
vt 0.019589 0.000431
vt -0.019475 0.001035
vt -0.020626 -0.001035
vt -0.019589 0.000431
vt 0.019475 0.001035
vt 0.019475 -0.001035
vt -0.019475 -0.001035
vt -0.018939 0.001035
vt 0.018939 0.001035
vt 0.018939 -0.001035
vt -0.018939 -0.001035
vt 0.019589 -0.000431
vt -0.019589 -0.000431
vt 0.021161 0.001035
vt -0.021161 0.001035
vn 0 0 -1
vn 0 0 1
vn 1 0 0
vn 0.8660253028382763 0.5000001748438415 0
vn 0.8660253028382761 -0.500000174843842 0
vn 0.5000001748438415 -0.8660253028382763 0
vn 0.7071067811865476 -0.7071067811865478 0
vn 0.500000174843842 0.8660253028382761 0
vn 0.7071067811865478 0.7071067811865476 0
vn 0 -1 0
vn 0 1 0
vn -0.500000174843842 -0.8660253028382761 0
vn -0.5000001748438415 0.8660253028382763 0
vn -0.7071067811865478 -0.7071067811865476 0
vn -0.8660253028382763 -0.5000001748438415 0
vn -0.7071067811865476 0.7071067811865478 0
vn -1 0 0
vn -0.8660253028382761 0.500000174843842 0
usemtl material_0_0
f 1/1/1 2/2/1 3/3/1
f 2/2/1 1/1/1 4/4/1
f 2/2/1 4/4/1 7/5/1
f 7/5/1 4/4/1 10/6/1
f 7/5/1 10/6/1 14/7/1
f 14/7/1 10/6/1 17/8/1
f 14/7/1 17/8/1 18/9/1
f 18/9/1 17/8/1 20/10/1
f 18/9/1 20/10/1 24/11/1
f 24/11/1 20/10/1 27/12/1
usemtl material_1_0
f 3/3/2 2/2/2 1/1/2
f 4/4/2 1/1/2 2/2/2
f 3/13/3 5/14/3 2/15/4
f 1/15/5 6/16/5 3/13/3
f 1/13/5 4/15/6 6/17/5
f 7/5/2 4/4/2 2/2/2
f 8/18/4 2/15/4 5/14/3
f 5/19/3 3/13/3 6/16/5
f 9/20/7 6/17/5 4/15/6
f 10/6/2 4/4/2 7/5/2
f 7/15/8 2/13/4 11/21/8
f 8/22/4 12/23/9 2/13/4
f 13/24/6 9/20/7 4/15/6
f 4/13/6 10/15/10 13/25/6
f 14/7/2 10/6/2 7/5/2
f 12/23/9 11/21/8 2/13/4
f 11/26/8 15/27/11 7/13/8
f 16/28/10 13/25/6 10/15/10
f 17/8/2 10/6/2 14/7/2
f 14/15/11 7/13/8 15/27/11
f 10/13/10 17/15/12 16/29/10
f 18/9/2 17/8/2 14/7/2
f 14/13/11 15/30/11 18/15/13
f 19/24/12 16/29/10 17/15/12
f 20/10/2 17/8/2 18/9/2
f 21/21/13 18/15/13 15/30/11
f 19/25/12 17/13/12 22/31/14
f 20/15/15 23/16/15 17/13/12
f 24/11/2 20/10/2 18/9/2
f 21/26/13 25/32/16 18/13/13
f 22/31/14 17/13/12 23/16/15
f 23/17/15 20/13/15 26/33/17
f 27/12/2 20/10/2 24/11/2
f 24/15/18 18/13/13 28/18/18
f 25/32/16 28/18/18 18/13/13
f 27/15/17 26/33/17 20/13/15
f 27/15/17 24/13/18 26/34/17
f 28/22/18 26/34/17 24/13/18
usemtl material_2_0
f 2//15 5//17 3//17
f 3//17 6//18 1//18
f 6//18 4//13 1//18
f 5//17 2//15 8//15
f 6//18 3//17 5//17
f 4//13 6//18 9//16
f 11//12 2//15 7//12
f 2//15 12//14 8//15
f 4//13 9//16 13//13
f 13//13 10//11 4//13
f 2//15 11//12 12//14
f 7//12 15//10 11//12
f 10//11 13//13 16//11
f 15//10 7//12 14//10
f 16//11 17//8 10//11
f 18//6 15//10 14//10
f 17//8 16//11 19//8
f 15//10 18//6 21//6
f 22//9 17//8 19//8
f 17//8 23//4 20//4
f 18//6 25//7 21//6
f 23//4 17//8 22//9
f 26//3 20//4 23//4
f 28//5 18//6 24//5
f 18//6 28//5 25//7
f 20//4 26//3 27//3
f 26//3 24//5 27//3
f 24//5 26//3 28//5
