# SSTK version 0.8.0
# 24
mtllib original-24.mtl
o RB_31_L1/RB_31_L/mesh13/mesh13-geometry#mesh13-geometry
v -0.821424 -0.452728 0.257940
v -0.821424 -0.570776 0.228428
v -0.821424 -0.570776 0.257940
v -0.821424 -0.452728 0.228428
v 0.816491 -0.570776 0.257940
v 0.816491 -0.452728 0.228428
v 0.816491 -0.570776 0.228428
v 0.816491 -0.452728 0.257940
vt -1.128403 -1.458044
vt -1.065903 -1.473669
vt -1.065903 -1.458044
vt -1.128403 -1.473669
vt -1.050278 -1.458044
vt -1.065903 -0.715857
vt -1.144028 -0.715857
vt -1.144028 -1.458044
vt 0.771585 -1.294191
vt 0.709085 -2.036379
vt 0.771585 -2.036379
vt -1.050278 -0.715857
vt -1.128403 -0.715857
vt 0.709085 -1.294191
vt 0.709085 -1.278566
vt 0.771585 -1.278566
vn -1 0 0
vn 0 -1 0
vn 0 0 1
vn 0 1 0
vn 0 0 -1
vn 1 0 0
usemtl material_0_0
f 1/1/1 2/2/1 3/3/1
f 2/2/1 1/1/1 4/4/1
f 2/5/2 5/6/2 3/3/2
f 5/6/3 1/1/3 3/3/3
f 1/1/4 6/7/4 4/8/4
f 6/9/5 2/10/5 4/11/5
f 5/6/2 2/5/2 7/12/2
f 1/1/3 5/6/3 8/13/3
f 6/7/4 1/1/4 8/13/4
f 2/10/5 6/9/5 7/14/5
f 6/9/6 5/15/6 7/14/6
f 5/15/6 6/9/6 8/16/6
usemtl material_1_0
f 3//6 2//6 1//6
f 4//6 1//6 2//6
f 3//4 5//4 2//4
f 3//5 1//5 5//5
f 4//2 6//2 1//2
f 4//3 2//3 6//3
f 7//4 2//4 5//4
f 8//5 5//5 1//5
f 8//2 1//2 6//2
f 7//3 6//3 2//3
f 7//1 5//1 6//1
f 8//1 6//1 5//1
