# SSTK version 0.8.0
# 27
mtllib original-27.mtl
o RB_31_B1/RB_31_B/mesh16/mesh16-geometry#mesh16-geometry
v 0.698443 0.004708 0.228428
v 0.816491 -0.452728 0.228428
v 0.698443 -0.452728 0.228428
v 0.816491 0.004708 0.228428
v 0.698443 -0.452728 0.257940
v 0.816491 0.004708 0.257940
v 0.698443 0.004708 0.257940
v 0.816491 -0.452728 0.257940
vt -1.152855 -0.052004
vt -0.938011 -0.114504
vt -0.938011 -0.052004
vt -1.152855 -0.114504
vt -0.938011 -0.036379
vt -1.152855 0.526331
vt -0.938011 0.541956
vt -1.152855 0.541956
vt -1.152855 -0.036379
vt -0.938011 0.526331
vt -0.938011 0.463831
vt -1.152855 0.463831
vn 0 0 -1
vn -1 0 0
vn 1 0 0
vn 0 0 1
usemtl material_0_0
f 1/1/1 2/2/1 3/3/1
f 2/2/1 1/1/1 4/4/1
f 5/5/2 1/1/2 3/3/2
f 6/6/3 2/7/3 4/8/3
f 1/1/2 5/5/2 7/9/2
f 2/7/3 6/6/3 8/10/3
f 5/11/4 6/6/4 7/12/4
f 6/6/4 5/11/4 8/10/4
usemtl material_1_0
f 3//4 2//4 1//4
f 4//4 1//4 2//4
f 3//3 1//3 5//3
f 4//2 2//2 6//2
f 7//3 5//3 1//3
f 8//2 6//2 2//2
f 7//1 6//1 5//1
f 8//1 5//1 6//1
