# SSTK version 0.8.0
# 25
mtllib original-25.mtl
o RB_31_R1/RB_31_R/mesh14/mesh14-geometry#mesh14-geometry
v -0.821424 0.122756 0.257940
v -0.821424 0.004708 0.228428
v -0.821424 0.004708 0.257940
v -0.821424 0.122756 0.228428
v 0.816491 0.004708 0.257940
v 0.816491 0.122756 0.228428
v 0.816491 0.004708 0.228428
v 0.816491 0.122756 0.257940
vt -0.741118 -1.458044
vt -0.756743 -1.520544
vt -0.741118 -1.520544
vt -0.756743 -1.458044
vt -0.819243 -1.458044
vt -0.834868 -0.715857
vt -0.834868 -1.458044
vt -1.343246 -0.715857
vt -1.405746 -1.458044
vt -1.343246 -1.458044
vt -0.756743 -0.715857
vt -0.819243 -0.715857
vt -1.405746 -0.715857
vt -0.741118 -0.715857
vt -0.819243 -0.700232
vt -0.756743 -0.700232
vn -1 0 0
vn 0 -1 0
vn 0 0 1
vn 0 1 0
vn 0 0 -1
vn 1 0 0
usemtl material_0_0
f 1/1/1 2/2/1 3/3/1
f 2/2/1 1/1/1 4/4/1
f 2/5/2 5/6/2 3/7/2
f 5/8/3 1/9/3 3/10/3
f 1/1/4 6/11/4 4/4/4
f 6/11/5 2/5/5 4/4/5
f 5/6/2 2/5/2 7/12/2
f 1/9/3 5/8/3 8/13/3
f 6/11/4 1/1/4 8/14/4
f 2/5/5 6/11/5 7/12/5
f 6/11/6 5/15/6 7/12/6
f 5/15/6 6/11/6 8/16/6
usemtl material_1_0
f 3//6 2//6 1//6
f 4//6 1//6 2//6
f 3//4 5//4 2//4
f 3//5 1//5 5//5
f 4//2 6//2 1//2
f 4//3 2//3 6//3
f 7//4 2//4 5//4
f 8//5 5//5 1//5
f 8//2 1//2 6//2
f 7//3 6//3 2//3
f 7//1 5//1 6//1
f 8//1 6//1 5//1
